<?xml version="1.0" standalone="no"?>
<!DOCTYPE svg PUBLIC "-//W3C//DTD SVG 20010904//EN"
 "http://www.w3.org/TR/2001/REC-SVG-20010904/DTD/svg10.dtd">
<svg version="1.0" xmlns="http://www.w3.org/2000/svg"
 width="1504.000000pt" height="604.000000pt" viewBox="0 0 1504.000000 604.000000"
 preserveAspectRatio="xMidYMid meet">

<g transform="translate(0.000000,604.000000) scale(0.100000,-0.100000)"
fill="#000000" stroke="none">
<path d="M3980 4254 c-366 -43 -643 -176 -890 -423 -208 -208 -332 -438 -396
-731 -15 -68 -19 -126 -19 -290 1 -186 3 -215 27 -317 132 -556 560 -974 1121
-1095 147 -31 427 -31 574 0 445 96 807 374 1010 776 48 95 108 283 127 395
21 123 21 369 1 487 -52 301 -184 555 -404 775 -214 215 -450 342 -740 400
-92 18 -335 32 -411 23z m310 -49 c329 -44 597 -180 826 -417 113 -117 181
-213 251 -353 101 -204 143 -387 143 -620 0 -168 -19 -290 -66 -433 -69 -209
-171 -379 -323 -536 -211 -217 -441 -345 -734 -408 -147 -31 -408 -31 -557 1
-265 57 -489 175 -683 361 -129 123 -214 237 -287 385 -114 230 -145 365 -145
630 0 148 4 209 19 274 63 288 181 506 386 712 242 243 507 370 865 412 73 9
208 6 305 -8z"/>
<path d="M4221 4156 c-7 -8 -15 -30 -18 -49 -4 -27 -1 -39 16 -56 11 -11 26
-21 31 -21 6 0 1 9 -10 20 -26 26 -25 60 1 94 16 20 17 26 6 26 -8 0 -20 -6
-26 -14z"/>
<path d="M4300 4155 c7 -9 15 -13 17 -11 7 7 -7 26 -19 26 -6 0 -6 -6 2 -15z"/>
<path d="M3846 4149 c-19 -63 -31 -139 -22 -139 6 0 11 13 12 28 1 16 4 42 8
58 7 28 8 28 22 10 18 -26 18 -34 -3 -39 -11 -3 -8 -5 9 -6 15 0 31 -8 36 -17
5 -9 14 -15 19 -13 6 2 -9 33 -33 68 -26 40 -45 59 -48 50z"/>
<path d="M4041 4134 c-11 -12 -11 -18 -2 -24 8 -5 10 -19 6 -44 -7 -34 -6 -36
18 -36 24 0 25 1 15 36 -7 28 -7 39 3 44 9 6 9 12 -4 24 -19 19 -18 19 -36 0z
m29 -79 c0 -8 -4 -15 -10 -15 -5 0 -10 7 -10 15 0 8 5 15 10 15 6 0 10 -7 10
-15z"/>
<path d="M4367 4087 c-31 -44 -41 -67 -32 -67 8 0 15 5 15 10 0 13 43 80 51
80 4 0 9 -11 11 -24 4 -19 0 -26 -16 -29 -20 -4 -20 -4 2 -6 16 -1 22 -7 22
-26 0 -15 6 -25 14 -25 11 0 11 10 0 68 -8 37 -16 71 -17 76 -2 5 -24 -21 -50
-57z"/>
<path d="M3735 4113 c37 -89 35 -123 -8 -123 -19 0 -46 50 -49 95 -1 14 -3 25
-4 25 -1 0 -9 -3 -18 -6 -11 -4 -12 -10 -5 -22 5 -10 15 -35 23 -57 13 -41 30
-51 71 -41 32 8 37 28 20 82 -8 26 -12 51 -9 56 3 4 -2 8 -11 8 -12 0 -15 -5
-10 -17z"/>
<path d="M4515 4110 c7 -12 -26 -110 -38 -110 -4 0 -5 -4 -2 -10 3 -5 13 -10
21 -10 8 0 13 4 10 8 -3 5 2 21 10 36 7 16 14 33 14 40 0 6 4 17 9 25 8 12 12
12 25 2 18 -15 5 -51 -18 -51 -11 0 -12 -8 -6 -34 9 -40 18 -56 31 -56 6 0 6
7 -1 19 -15 29 -13 71 4 71 16 0 29 27 20 42 -6 9 -66 38 -79 38 -4 0 -3 -4 0
-10z"/>
<path d="M3563 4070 c-45 -18 -55 -72 -22 -114 15 -19 29 -26 52 -25 23 1 26
3 10 6 -43 8 -78 76 -55 109 12 18 39 23 52 11 10 -9 12 -9 8 2 -6 19 -18 22
-45 11z"/>
<path d="M4290 4045 c-8 -9 -8 -15 -2 -15 12 0 26 19 19 26 -2 2 -10 -2 -17
-11z"/>
<path d="M4626 4028 c-26 -42 -27 -64 -5 -91 41 -53 119 -18 119 53 0 26 -26
60 -46 60 -5 0 -1 -5 9 -11 37 -22 3 -119 -43 -119 -47 0 -50 61 -5 106 22 22
23 24 5 24 -11 0 -26 -10 -34 -22z"/>
<path d="M3992 4010 c-13 -13 -39 -22 -69 -24 -26 -2 -55 -6 -63 -9 -8 -3 -53
-17 -100 -31 -283 -85 -523 -277 -678 -541 -209 -357 -206 -839 8 -1195 323
-538 995 -734 1556 -454 491 245 751 815 614 1349 -122 478 -521 828 -1009
887 -53 6 -105 17 -116 25 -26 17 -44 17 -20 -1 17 -12 11 -14 -50 -14 -63 0
-68 1 -51 14 11 8 15 14 10 14 -6 0 -20 -9 -32 -20z m156 -28 c7 -5 10 -16 6
-26 -6 -16 -8 -17 -16 -2 -10 18 -38 22 -38 4 0 -6 -3 -8 -6 -5 -9 8 15 37 30
37 6 0 17 -4 24 -8z m-64 -25 c3 -12 10 -17 19 -14 8 3 19 1 25 -5 8 -8 15 -8
25 1 12 9 16 8 19 -7 5 -16 -3 -18 -86 -17 -50 0 -101 -4 -114 -8 -21 -8 -22
-7 -11 11 7 12 19 17 31 14 10 -2 18 1 18 7 0 6 10 10 21 8 12 -1 24 5 26 13
4 13 3 13 -6 0 -7 -10 -11 -11 -11 -2 0 17 -29 15 -36 -3 -5 -12 -8 -12 -20 0
-22 22 -17 25 40 24 45 -1 55 -5 60 -22z m151 3 c-10 -11 -24 -20 -31 -20 -7
0 -18 9 -24 20 -10 19 -8 20 31 20 41 0 42 0 24 -20z m-315 -28 c-15 -5 -41
18 -34 30 3 5 15 1 26 -9 11 -10 15 -19 8 -21z m40 30 c0 -14 -11 -21 -26 -15
-21 8 -17 23 6 23 11 0 20 -4 20 -8z m318 -6 c-2 0 -16 -12 -32 -26 -16 -14
-26 -18 -21 -10 16 29 38 49 47 44 5 -3 8 -7 6 -8z m131 -11 c209 -56 386
-161 536 -316 102 -106 154 -177 212 -294 132 -263 159 -589 72 -865 -30 -93
-110 -260 -126 -260 -7 0 -44 29 -81 65 -50 46 -77 82 -96 125 -22 48 -32 60
-50 60 -19 0 -26 -8 -36 -44 -6 -24 -20 -56 -30 -71 l-18 -28 -17 33 c-27 52
-65 158 -65 181 0 24 32 52 94 83 49 25 54 48 11 52 -16 1 -22 0 -12 -3 20 -5
22 -14 5 -31 -19 -19 -28 -14 -28 13 0 20 -6 25 -35 31 -19 3 -49 4 -67 2 -26
-4 -28 -3 -15 7 17 12 29 12 131 1 27 -3 46 -3 43 0 -3 3 -20 7 -39 9 -137 15
-128 16 -159 -16 -15 -16 -33 -29 -38 -29 -14 0 -23 -35 -15 -64 4 -16 13 -26
24 -26 32 0 50 -12 50 -32 0 -26 -86 -231 -152 -362 -90 -180 -165 -282 -245
-335 -26 -17 -42 -31 -37 -31 5 0 21 7 34 16 115 77 221 245 356 563 63 149
75 156 109 66 52 -138 107 -227 204 -328 l65 -68 -65 -65 c-113 -115 -250
-205 -393 -259 -65 -24 -74 -25 -139 -15 -38 6 -72 9 -74 6 -3 -2 17 -8 44
-12 l48 -8 -44 -12 c-24 -8 -90 -19 -148 -25 -245 -28 -550 46 -762 184 -73
48 -267 230 -289 272 -9 17 -1 33 55 105 84 109 145 213 186 317 32 82 32 83
67 83 35 0 36 -1 79 -96 100 -217 254 -453 378 -579 105 -107 256 -202 348
-220 17 -3 8 3 -20 14 -265 99 -470 328 -682 759 l-65 133 -39 -3 -40 -3 -43
-100 c-50 -117 -87 -182 -162 -281 -72 -95 -81 -102 -99 -78 -34 44 -126 245
-149 324 -120 424 1 865 322 1172 118 113 250 195 407 253 98 36 111 38 112
12 2 -17 0 -19 -7 -7 -5 8 -10 10 -10 5 0 -17 21 -34 36 -28 9 3 14 -2 14 -16
0 -28 26 -38 49 -17 10 9 21 13 24 9 11 -10 8 -41 -3 -45 -6 -2 -2 -20 9 -43
24 -50 34 -105 20 -105 -6 0 -7 5 -4 10 8 12 3 13 -29 0 -14 -5 -26 -17 -26
-25 0 -15 -1 -15 -16 -1 -8 9 -24 16 -34 16 -24 0 -53 -29 -46 -47 3 -8 -1
-25 -10 -38 -12 -18 -13 -28 -4 -44 9 -18 18 -20 71 -17 34 1 64 7 67 13 11
16 66 42 86 40 11 -1 21 3 23 10 7 19 -34 25 -67 8 -16 -8 -30 -14 -30 -11 0
2 -3 13 -6 23 -5 15 -4 15 5 3 9 -13 11 -13 11 3 0 11 8 17 23 17 13 0 27 4
33 9 12 12 142 17 151 6 5 -4 2 -5 -6 0 -9 5 -12 4 -7 -3 4 -7 18 -12 30 -12
15 0 26 -7 29 -20 5 -21 -7 -28 -18 -10 -7 12 -45 13 -63 1 -10 -6 -10 -10 3
-21 13 -11 14 -10 9 4 -6 14 -2 17 20 14 15 -2 26 -7 26 -11 0 -4 12 -18 27
-31 21 -17 41 -23 80 -24 65 -1 82 15 65 62 -7 18 -12 40 -12 49 0 34 -79 47
-81 14 0 -7 -4 -3 -8 8 -4 11 -19 22 -32 25 -30 7 -36 44 -15 94 9 21 11 38 5
41 -10 7 -13 45 -2 45 4 0 17 -10 30 -21 18 -18 25 -20 38 -9 8 7 15 18 15 25
0 7 11 16 25 19 14 4 25 10 25 15 0 5 -11 18 -25 29 -50 40 -33 41 94 7z
m-499 -59 c-7 -7 -21 1 -43 24 -18 19 -21 25 -6 12 36 -31 47 -28 18 6 -23 26
-23 26 9 -2 22 -20 29 -33 22 -40z m395 33 c-3 -4 -20 -18 -38 -31 -26 -18
-29 -19 -17 -3 14 17 13 18 -5 12 -15 -6 -14 -2 8 18 24 22 65 25 52 4z m-252
-31 c-4 -7 -6 -22 -5 -33 2 -18 2 -19 -8 -2 -13 20 -30 14 -29 -11 0 -11 2
-13 6 -4 4 9 8 10 18 2 16 -13 30 3 21 25 -3 9 1 15 9 15 9 0 15 -10 16 -22 0
-23 0 -23 10 1 7 18 6 27 -3 33 -19 11 45 10 77 -2 22 -9 26 -15 23 -50 -2
-37 -3 -39 -27 -32 -34 9 -139 9 -174 -1 -25 -7 -27 -6 -15 12 6 11 16 17 20
15 4 -3 8 0 8 6 0 6 -8 10 -17 8 -10 -2 -17 -10 -15 -16 1 -7 -2 -12 -8 -12
-5 0 -10 13 -10 29 0 23 6 32 28 39 41 15 85 15 75 0z m118 -105 c6 -6 9 -18
6 -27 -5 -13 -9 -13 -36 0 -17 9 -36 12 -42 8 -8 -4 -9 -3 -5 5 13 20 -26 26
-40 6 -8 -10 -14 -15 -14 -11 0 5 -6 3 -13 -3 -8 -6 -17 -8 -21 -4 -4 4 -11 1
-15 -6 -5 -7 -14 -10 -20 -7 -20 13 -12 34 17 45 35 13 168 9 183 -6z m-91
-23 c0 -12 6 -20 13 -19 26 3 57 -1 57 -8 0 -5 -34 -8 -75 -8 -41 0 -75 3 -75
7 0 4 7 5 15 2 8 -4 15 -2 15 4 0 5 8 9 18 8 11 -1 16 5 14 17 -2 9 2 17 8 17
5 0 10 -9 10 -20z m-63 -82 c-3 -8 -6 -5 -6 6 -1 11 2 17 5 13 3 -3 4 -12 1
-19z m123 10 c0 -5 -4 -6 -10 -3 -5 3 -10 1 -10 -4 0 -6 -20 -11 -45 -11 -34
0 -45 4 -45 15 0 12 12 15 55 14 30 -1 55 -6 55 -11z m60 -3 c7 -9 10 -18 6
-22 -3 -3 -6 -1 -6 6 0 8 -8 10 -22 7 -13 -3 -17 -3 -10 0 6 3 10 10 6 15 -9
15 13 10 26 -6z m107 -11 c-3 -3 -12 -4 -19 -1 -8 3 -5 6 6 6 11 1 17 -2 13
-5z m-472 -14 c-3 -5 -1 -10 4 -10 6 0 11 5 11 10 0 6 5 10 10 10 6 0 9 -3 9
-7 -5 -30 3 -63 15 -63 7 0 16 -9 19 -21 5 -17 2 -20 -13 -16 -11 3 -22 0 -25
-7 -3 -6 -3 -1 -1 12 5 27 -10 30 -17 2 -7 -27 -26 -25 -36 3 -8 21 5 54 18
42 3 -3 -1 -10 -9 -15 -9 -6 -10 -10 -3 -10 19 0 24 16 14 42 -6 12 -10 17
-10 9 -1 -8 -4 -11 -7 -8 -4 4 -1 13 6 22 14 17 25 20 15 5z m435 -32 c0 -16
-25 -8 -38 12 -11 18 -10 19 13 8 14 -6 25 -15 25 -20z m45 22 c4 -6 2 -17 -5
-25 -9 -11 -7 -16 8 -24 11 -6 21 -8 24 -6 2 2 4 -4 4 -13 0 -27 -43 -27 -52
0 -6 21 -7 21 -20 3 -7 -10 -11 -22 -8 -26 3 -5 -1 -9 -8 -9 -8 0 -13 12 -13
30 0 22 5 30 18 30 11 0 18 7 16 18 -1 9 -1 20 0 25 2 11 29 9 36 -3z m-397
-20 c-13 -21 -38 -27 -38 -10 0 8 26 24 48 29 1 1 -3 -8 -10 -19z m106 -28 c3
-5 -8 -9 -25 -9 -19 0 -25 3 -17 9 17 10 35 10 42 0z m-117 -58 c-3 -3 -12 -4
-19 -1 -8 3 -5 6 6 6 11 1 17 -2 13 -5z m811 -911 c-2 -12 -11 -17 -25 -15
-12 2 -25 -3 -29 -9 -5 -9 -2 -10 9 -6 10 3 17 2 17 -4 0 -6 7 -6 20 1 11 6
20 20 20 30 0 13 7 20 20 20 11 0 20 -7 20 -15 0 -8 -4 -15 -10 -15 -5 0 -17
-9 -27 -19 -21 -22 -69 -25 -77 -4 -9 23 4 35 31 30 18 -3 23 -1 19 9 -3 8 -1
14 5 14 6 0 9 -8 7 -17z m-82 -30 c-10 -10 -19 5 -10 18 6 11 8 11 12 0 2 -7
1 -15 -2 -18z m4 -23 c0 -5 -7 -10 -15 -10 -8 0 -15 5 -15 10 0 6 7 10 15 10
8 0 15 -4 15 -10z m280 -188 c24 -56 92 -134 155 -178 l29 -21 -47 -66 -48
-67 -34 26 c-34 25 -125 133 -160 187 -17 27 -17 29 2 65 11 20 26 54 33 75
17 55 40 48 70 -21z"/>
<path d="M4460 3725 c0 -8 -7 -15 -17 -15 -9 0 -13 -3 -10 -7 4 -3 2 -12 -4
-20 -9 -10 -8 -13 1 -13 10 0 10 -3 0 -15 -11 -13 -8 -15 13 -15 39 0 55 -9
78 -46 11 -19 28 -33 37 -33 14 1 14 2 2 5 -8 3 -23 18 -33 35 -9 17 -31 36
-47 42 -35 13 -40 41 -10 59 24 15 25 24 5 32 -9 3 -15 0 -15 -9z"/>
<path d="M4656 3723 c-3 -7 -13 -13 -23 -12 -16 0 -16 1 2 9 19 8 19 9 -2 9
-27 1 -29 -13 -8 -53 13 -25 13 -27 0 -22 -8 3 -15 0 -15 -7 0 -8 -4 -6 -10 3
-8 13 -10 12 -10 -2 0 -29 -27 -21 -57 17 -15 19 -32 35 -36 35 -18 0 50 -71
73 -77 14 -3 30 -10 37 -15 13 -10 33 -3 33 12 0 5 -8 7 -17 4 -15 -5 -16 -4
-3 5 9 6 18 7 24 1 15 -15 42 -12 56 5 14 17 7 19 -20 5 -13 -7 -21 -7 -25 0
-3 5 1 10 10 10 8 0 18 6 21 14 13 33 34 25 54 -20 24 -52 21 -84 -3 -39 -15
29 -16 29 -17 6 0 -13 8 -30 18 -37 13 -10 14 -15 5 -25 -10 -10 -14 -7 -22
14 -7 19 -15 24 -30 20 -15 -4 -21 -1 -21 10 0 12 -4 13 -24 4 -24 -11 -26
-29 -3 -26 29 5 82 -34 82 -60 0 -8 26 -30 58 -48 31 -19 57 -38 57 -43 0 -20
31 -9 40 13 8 21 9 21 9 -5 1 -18 -5 -29 -19 -33 -11 -4 -34 -19 -51 -35 -27
-24 -29 -31 -20 -49 15 -27 11 -34 -38 -56 -35 -15 -43 -16 -57 -4 -15 12 -15
14 7 21 21 6 20 7 -6 5 -23 -2 -30 -7 -30 -22 0 -29 44 -31 95 -5 47 24 58 43
39 66 -11 14 -9 19 16 38 16 11 38 26 50 31 32 17 30 43 -10 121 -32 62 -36
76 -25 89 10 13 15 13 21 3 4 -7 3 -16 -4 -20 -6 -4 -9 -10 -5 -13 7 -8 40 8
39 18 -5 39 13 52 24 17 8 -24 24 -17 22 9 0 11 -8 20 -17 20 -8 0 -29 3 -46
7 -63 12 -78 -66 -28 -154 16 -28 26 -53 23 -56 -7 -7 -138 76 -139 87 0 4 7
7 15 7 8 0 19 9 25 20 6 11 8 20 4 20 -3 0 -1 7 6 15 10 12 10 15 -1 16 -8 0
-3 5 11 11 14 6 20 12 13 15 -8 3 -10 17 -8 36 l5 32 -10 -33 c-9 -26 -13 -30
-24 -20 -17 16 -8 58 13 59 20 0 -18 18 -76 34 -34 9 -43 9 -47 -2z m49 -21
c-3 -3 -11 0 -18 7 -9 10 -8 11 6 5 10 -3 15 -9 12 -12z m178 -79 c-7 -2 -19
-2 -25 0 -7 3 -2 5 12 5 14 0 19 -2 13 -5z m-4 -168 c0 -5 -11 8 -24 30 -14
22 -25 45 -25 50 0 6 11 -8 25 -30 13 -22 24 -44 24 -50z"/>
<path d="M3440 3718 c1 -18 29 -66 30 -50 0 7 14 12 34 12 31 0 46 13 46 40 0
13 -64 9 -72 -4 -5 -8 -8 -7 -8 2 0 6 -7 12 -15 12 -8 0 -15 -6 -15 -12z m50
-9 c5 10 9 10 15 2 5 -9 11 -9 23 1 13 11 14 11 10 -2 -3 -10 -18 -15 -43 -15
-25 0 -40 5 -43 15 -5 13 -3 13 12 1 14 -12 19 -12 26 -2z"/>
<path d="M3532 3637 l-2 -37 -50 1 c-50 2 -51 2 -45 31 6 27 5 28 -35 28 -41
0 -41 0 -35 -30 5 -23 3 -30 -9 -30 -9 0 -16 -8 -16 -20 0 -11 3 -20 8 -20 4
0 12 -10 17 -22 6 -13 20 -24 33 -26 15 -2 22 -11 23 -25 1 -21 2 -21 7 -2 l5
20 8 -20 c7 -19 8 -19 8 3 1 22 5 23 61 21 40 -2 60 -6 60 -15 0 -7 -6 -15
-12 -17 -8 -4 -7 -6 3 -6 10 -1 19 9 21 24 l5 25 -101 2 c-87 1 -93 2 -46 8
l55 7 -62 1 c-35 1 -63 7 -63 12 0 6 48 10 125 10 114 0 145 -7 115 -25 -5 -3
-9 -21 -9 -38 1 -26 3 -27 6 -8 3 13 13 39 24 58 23 41 24 53 3 53 -12 0 -14
7 -9 30 6 30 6 30 -35 30 -41 0 -41 0 -35 -30 4 -18 3 -30 -4 -30 -5 0 -12 17
-14 38 l-4 37 -1 -38z m86 -1 c3 -3 -6 -6 -21 -6 -14 0 -28 4 -31 9 -6 9 42 6
52 -3z m-201 -2 c-3 -3 -12 -4 -19 -1 -8 3 -5 6 6 6 11 1 17 -2 13 -5z m3 -24
c0 -5 -9 -10 -20 -10 -11 0 -20 5 -20 10 0 6 9 10 20 10 11 0 20 -4 20 -10z
m190 0 c0 -5 -9 -10 -20 -10 -11 0 -20 5 -20 10 0 6 9 10 20 10 11 0 20 -4 20
-10z m-245 -30 c3 -5 1 -10 -4 -10 -6 0 -11 5 -11 10 0 6 2 10 4 10 3 0 8 -4
11 -10z"/>
<path d="M4620 3554 c0 -15 26 -19 34 -5 3 5 -3 11 -14 14 -13 3 -20 0 -20 -9z"/>
<path d="M4906 3553 c-6 -14 -5 -15 5 -6 7 7 10 15 7 18 -3 3 -9 -2 -12 -12z"/>
<path d="M4555 3539 c-36 -23 -61 -24 -109 -4 -20 8 -37 13 -37 10 -1 -3 -2
-8 -3 -12 -1 -5 -5 -14 -9 -20 -5 -8 -3 -13 3 -13 7 0 10 -7 6 -15 -3 -8 -1
-15 4 -15 5 0 10 -7 12 -15 2 -10 8 -12 17 -5 12 7 12 11 2 23 -6 8 -14 25
-16 37 -4 19 -1 21 18 15 53 -17 76 -16 116 4 22 12 41 24 41 26 0 9 -15 4
-45 -16z"/>
<path d="M4875 3550 c3 -5 8 -10 11 -10 2 0 4 5 4 10 0 6 -5 10 -11 10 -5 0
-7 -4 -4 -10z"/>
<path d="M3381 3454 c-1 -32 -7 -56 -16 -64 -9 -8 -15 -29 -15 -55 l0 -43 63
-7 c34 -4 100 -3 147 2 l85 8 2 40 1 40 -6 -35 c-7 -33 -10 -35 -49 -38 -43
-3 -43 -3 -43 32 0 28 4 35 23 39 l22 4 -22 2 c-13 0 -23 6 -23 11 0 6 -25 10
-55 10 -30 0 -55 -4 -55 -10 0 -5 -12 -10 -28 -10 -26 0 -27 2 -24 44 2 24 2
52 -1 62 -3 11 -5 -4 -6 -32z m83 -81 c-5 -16 -4 -16 9 0 28 34 52 18 55 -36
l3 -48 -40 3 -41 3 0 48 c0 26 4 47 10 47 5 0 7 -8 4 -17z m-48 -3 c21 0 24
-4 24 -41 0 -38 -2 -41 -22 -35 -13 3 -31 6 -40 6 -14 0 -18 9 -18 41 0 33 3
40 16 35 9 -3 27 -6 40 -6z"/>
<path d="M4555 3479 l-30 -8 33 3 c19 1 50 -5 70 -16 20 -10 43 -18 52 -17 8
0 -3 7 -25 15 -22 8 -44 19 -49 24 -6 6 -12 9 -15 9 -4 -1 -19 -5 -36 -10z"/>
<path d="M4474 3464 c-19 -15 -19 -15 1 -6 11 5 27 12 35 15 13 5 13 6 -1 6
-8 1 -24 -6 -35 -15z"/>
<path d="M3614 3423 c1 -18 -3 -35 -9 -37 -5 -2 1 -5 14 -5 18 -1 21 2 13 12
-6 6 -12 23 -15 37 -3 17 -4 15 -3 -7z"/>
<path d="M4065 3429 c-27 -16 -55 -51 -55 -69 0 -12 2 -12 9 -2 6 10 10 7 13
-11 6 -31 -6 -57 -16 -36 -3 8 -4 1 -1 -14 3 -16 1 -35 -5 -42 -8 -9 -8 -15 0
-20 5 -3 10 -15 10 -26 0 -11 7 -22 16 -26 12 -4 8 -11 -18 -34 -18 -15 -43
-28 -55 -29 -29 0 -41 -41 -25 -84 10 -26 9 -33 -9 -52 -19 -20 -21 -30 -15
-78 6 -46 13 -60 42 -86 28 -24 39 -28 54 -20 12 7 21 7 25 0 3 -5 14 -10 24
-10 14 0 16 7 13 38 -3 35 -2 36 13 17 8 -11 13 -26 10 -33 -4 -10 0 -12 11
-8 8 3 28 7 42 7 23 1 21 3 -8 8 -31 5 -36 11 -45 48 -10 41 -35 81 -35 56 0
-7 5 -15 10 -18 12 -7 13 -25 2 -25 -4 0 -13 14 -19 31 -12 31 -8 59 8 59 5 0
9 6 9 14 0 8 6 17 13 19 10 4 10 6 0 6 -7 1 -13 6 -13 13 0 6 3 8 7 5 3 -4 11
-2 18 3 7 6 19 4 33 -6 29 -20 28 -37 -3 -32 -13 3 -22 1 -19 -3 3 -5 17 -9
32 -9 25 0 27 4 29 43 3 41 2 41 -12 17 l-14 -25 -1 29 c0 28 -1 29 -15 10
-10 -14 -14 -15 -15 -5 0 11 -4 9 -15 -5 -9 -12 -14 -14 -15 -6 0 8 -14 0 -31
-17 -35 -35 -42 -37 -60 -15 -19 23 -18 54 3 65 15 8 22 4 39 -23 17 -28 20
-29 14 -8 -4 14 -18 34 -31 45 -21 18 -22 23 -11 38 12 17 14 16 36 -7 31 -33
58 -33 101 -1 35 26 55 30 87 18 16 -6 15 -8 -7 -13 -16 -4 -26 -14 -28 -29
-3 -16 0 -21 9 -16 8 5 10 4 5 -4 -14 -21 3 -49 26 -43 15 3 19 1 16 -9 -3 -8
-15 -14 -27 -13 -27 1 -28 -13 -1 -21 27 -9 25 -25 -2 -26 l-23 0 23 -11 c14
-7 22 -21 23 -37 0 -15 7 -2 15 32 16 67 15 74 -9 99 -10 10 -15 23 -12 28 4
6 2 10 -3 10 -6 0 -13 7 -16 16 -4 12 0 15 16 12 16 -2 25 -12 29 -33 6 -26 7
-27 7 -5 0 35 -12 75 -23 76 -6 0 -25 4 -43 8 -27 6 -40 3 -71 -18 -42 -29
-73 -33 -91 -11 -17 20 -4 38 18 24 21 -13 98 14 88 30 -4 5 -1 13 5 17 8 5 9
3 4 -6 -5 -9 -4 -11 4 -6 6 4 27 -2 46 -13 19 -11 35 -16 35 -11 0 5 -15 16
-32 23 -18 8 -39 21 -46 30 -11 13 -10 18 11 32 53 34 60 120 13 164 -28 26
-92 37 -121 20z m117 -27 c11 -10 22 -37 25 -59 4 -33 1 -44 -21 -69 -31 -35
-36 -14 -7 30 l20 30 -25 29 c-13 15 -24 32 -24 37 0 17 -41 22 -58 7 -9 -8
-28 -18 -42 -21 -25 -7 -25 -7 4 20 25 22 36 25 69 21 22 -3 49 -14 59 -25z
m-44 -4 c17 -17 15 -28 -5 -28 -26 0 -47 16 -39 29 9 14 29 14 44 -1z m-43
-34 c12 -9 30 -12 47 -8 20 4 30 1 34 -10 10 -27 -6 -39 -28 -19 -13 12 -36
18 -64 18 -40 0 -55 11 -37 28 10 11 26 8 48 -9z m36 -45 l24 -20 -24 12 c-14
6 -36 15 -50 20 l-26 7 26 1 c15 1 37 -8 50 -20z m-42 -44 c15 -50 34 -55 39
-10 3 24 1 27 -17 22 -14 -3 -21 0 -21 9 0 18 20 18 43 0 17 -13 17 -17 2 -65
-21 -62 -42 -83 -60 -58 -7 9 -20 17 -29 17 -13 0 -16 5 -11 19 4 13 0 23 -12
30 -20 11 -22 8 33 26 16 5 16 7 0 23 -21 24 -20 32 2 32 12 0 22 -14 31 -45z
m-103 -287 c4 -6 3 -8 -3 -5 -6 4 -18 0 -28 -7 -16 -11 -17 -19 -7 -72 l11
-59 -6 63 c-4 50 -2 62 9 62 8 0 18 -3 22 -7 4 -5 13 -8 19 -8 7 -1 11 -7 9
-14 -1 -7 7 -24 18 -38 11 -14 20 -40 20 -58 0 -29 -3 -32 -29 -33 -16 0 -35
6 -41 14 -7 7 -16 12 -20 9 -15 -9 -29 22 -36 77 -6 54 -6 57 22 72 35 19 31
18 40 4z"/>
<path d="M4705 3430 c3 -5 -1 -10 -11 -10 -9 0 -22 -7 -28 -16 -10 -14 -15
-13 -39 6 -15 12 -34 19 -42 16 -17 -6 -20 -42 -5 -51 6 -3 10 1 10 9 0 24 18
28 45 10 23 -15 27 -15 38 -1 33 42 84 23 71 -27 -7 -30 -7 -30 -35 -13 -16 9
-23 9 -26 0 -3 -8 -11 -7 -31 3 -15 8 -34 14 -42 14 -8 0 3 -9 25 -19 26 -12
44 -15 52 -9 8 6 24 1 48 -15 33 -23 35 -26 18 -36 -16 -9 -16 -10 -1 -11 25
0 33 21 13 36 -13 10 -16 21 -11 48 5 28 2 40 -14 56 -20 20 -46 28 -35 10z"/>
<path d="M5019 3274 c-7 -8 -21 -13 -31 -11 -19 5 -22 -1 -12 -27 4 -10 12
-13 22 -8 15 7 40 7 90 3 6 0 12 -8 12 -17 0 -12 -11 -15 -55 -13 -30 1 -58 0
-62 -4 -3 -4 24 -7 60 -7 38 0 67 -4 67 -10 0 -6 -29 -10 -66 -10 -64 0 -66
-1 -59 -22 3 -13 9 -56 12 -97 l6 -74 -32 19 c-29 17 -43 54 -21 54 6 0 10 9
10 20 0 11 -5 20 -11 20 -5 0 -7 -4 -4 -10 3 -5 1 -10 -4 -10 -6 0 -11 -9 -11
-21 0 -12 -4 -17 -11 -13 -6 3 -9 17 -6 30 2 13 0 24 -4 24 -13 0 -11 -88 1
-92 6 -2 7 -14 1 -35 -11 -36 -5 -46 52 -88 l38 -28 -5 -186 c-2 -102 -7 -205
-11 -228 l-7 -43 76 0 c42 0 76 3 76 8 0 4 -31 6 -70 4 -58 -3 -70 -1 -70 12
0 12 15 16 73 18 66 3 72 5 68 23 -2 11 -6 55 -8 98 -4 74 -3 78 14 73 11 -3
28 1 39 10 18 14 18 15 -5 4 -17 -9 -26 -9 -34 -1 -8 8 -6 11 6 11 9 0 17 5
17 11 0 5 -4 7 -10 4 -15 -9 -12 9 5 31 15 18 15 18 8 0 -4 -13 -3 -17 5 -12
7 4 12 1 12 -8 0 -9 5 -16 10 -16 15 0 12 17 -6 45 -10 15 -12 25 -5 25 6 0
11 18 11 43 1 39 2 41 15 23 10 -13 15 -15 15 -6 0 7 -25 38 -55 68 -36 36
-55 64 -56 81 -2 24 -2 24 -6 4 -5 -29 -5 -29 -53 3 -40 26 -40 27 -40 90 l0
64 40 0 c39 0 40 -1 41 -37 1 -36 2 -36 10 12 5 28 11 83 13 123 4 66 2 72
-14 67 -9 -3 -23 1 -30 10 -16 19 -34 19 -51 -1z m54 -121 c-13 -2 -33 -2 -45
0 -13 2 -3 4 22 4 25 0 35 -2 23 -4z m0 -40 c-13 -2 -33 -2 -45 0 -13 2 -3 4
22 4 25 0 35 -2 23 -4z m-132 -147 c5 3 9 -2 9 -10 0 -9 -4 -16 -10 -16 -5 0
-10 2 -10 4 0 2 -2 10 -3 18 -2 7 -2 10 0 5 3 -4 9 -5 14 -1z m149 -64 c-5 -2
-22 6 -37 17 -20 17 -28 19 -35 9 -5 -9 -8 -6 -8 9 l0 23 45 -28 c25 -15 41
-28 35 -30z m-110 42 c0 -3 -5 -14 -11 -25 -8 -16 -6 -24 13 -40 21 -19 21
-19 -9 1 -31 20 -61 52 -34 36 8 -5 14 0 18 13 5 18 23 31 23 15z m15 -34 c3
-5 1 -10 -4 -10 -6 0 -11 5 -11 10 0 6 2 10 4 10 3 0 8 -4 11 -10z m51 -15 c4
-8 12 -15 19 -15 12 0 29 -40 20 -49 -3 -2 -5 1 -5 8 0 7 -5 9 -10 6 -8 -5 -7
-12 2 -23 7 -8 -4 -4 -24 9 -29 19 -36 30 -35 51 2 30 24 38 33 13z m114 -40
c10 -12 11 -21 3 -33 -15 -24 -38 -21 -39 5 -1 12 3 20 7 17 15 -9 10 8 -8 29
-17 19 -17 20 3 9 11 -6 27 -18 34 -27z m-69 -49 c5 3 9 2 8 -3 -3 -20 3 -57
8 -45 4 10 11 8 28 -8 23 -22 23 -23 7 -57 -14 -29 -17 -31 -23 -16 -4 10 -8
-30 -8 -89 l-1 -108 -50 0 -50 0 0 181 0 181 36 -21 c19 -12 40 -19 45 -15z
m29 -356 c0 -6 -29 -10 -66 -10 -41 0 -63 4 -59 10 3 6 33 10 66 10 33 0 59
-4 59 -10z"/>
<path d="M5028 2883 c-6 -23 16 -52 29 -39 4 4 2 11 -6 15 -7 5 -12 11 -11 15
4 19 -7 27 -12 9z"/>
<path d="M3119 3234 c-7 -8 -20 -13 -30 -11 -15 4 -16 -3 -13 -57 4 -77 8
-104 17 -112 4 -4 7 -48 7 -98 l0 -91 -35 -28 c-20 -16 -47 -46 -62 -68 -23
-35 -25 -43 -15 -72 l11 -32 -5 32 c-7 41 12 79 31 63 20 -17 25 -48 8 -54 -8
-4 -13 -13 -9 -21 3 -8 3 -22 -1 -31 -5 -13 -7 -13 -14 -2 -12 19 -11 -5 2
-39 15 -41 39 -52 68 -34 12 8 11 17 -9 55 -24 44 -24 45 -6 65 11 12 23 21
28 21 12 0 10 -277 -2 -285 -5 -3 -10 -22 -10 -41 l0 -34 76 0 76 0 -7 88 c-8
100 -15 119 -15 44 l0 -52 -50 0 -50 0 0 150 0 150 43 31 42 31 6 -104 5 -103
2 105 2 104 45 42 45 41 0 76 c0 74 -1 77 -26 83 -35 9 -42 -2 -45 -64 -2 -29
-7 -56 -12 -59 -6 -3 -7 -1 -3 5 4 7 2 12 -4 12 -7 0 -9 45 -6 144 4 133 3
143 -13 139 -9 -2 -23 3 -30 11 -8 9 -17 16 -21 16 -4 0 -13 -7 -21 -16z m39
-15 c3 -11 2 -11 -7 1 -10 13 -12 13 -21 0 -5 -8 -10 -10 -10 -4 0 27 31 30
38 3z m30 -43 c3 -13 -6 -16 -47 -16 -38 0 -51 4 -51 14 0 27 93 29 98 2z m12
-46 c0 -6 -27 -10 -60 -10 -33 0 -60 4 -60 10 0 6 27 10 60 10 33 0 60 -4 60
-10z m-27 -27 c-13 -2 -33 -2 -45 0 -13 2 -3 4 22 4 25 0 35 -2 23 -4z m7 -33
c11 -7 3 -10 -30 -10 -33 0 -41 3 -30 10 8 5 22 10 30 10 8 0 22 -5 30 -10z
m10 -82 c0 -61 -1 -64 -35 -85 -19 -13 -37 -23 -40 -23 -3 0 -5 38 -5 85 l0
85 40 0 40 0 0 -62z m94 43 c8 -12 -3 -41 -15 -41 -5 0 -9 7 -9 15 0 8 -4 15
-10 15 -5 0 -10 5 -10 10 0 12 37 13 44 1z m-37 -58 c-3 -10 -5 -4 -5 12 0 17
2 24 5 18 2 -7 2 -21 0 -30z m3 -116 c-42 -39 -56 -43 -44 -13 3 9 10 13 16
10 10 -7 58 34 58 49 0 12 -52 -1 -63 -16 -6 -8 -7 -7 -4 3 2 8 18 19 36 24
24 7 32 15 30 30 0 12 0 26 2 31 1 6 4 -10 6 -35 4 -42 2 -47 -37 -83z m-107
11 c-4 -17 -2 -20 5 -9 8 11 11 9 15 -10 4 -23 4 -23 6 3 1 34 21 48 21 14 0
-14 -5 -28 -11 -31 -6 -4 -8 -13 -5 -21 3 -7 -7 -22 -23 -34 -38 -26 -46 -25
-24 4 11 14 24 21 33 18 13 -5 13 -3 1 11 -18 23 -30 21 -41 -5 -7 -20 -9 -17
-9 16 -1 26 5 43 17 52 9 7 18 14 19 14 0 0 -1 -10 -4 -22z m-46 -90 c-2 -13
-4 -5 -4 17 -1 22 1 32 4 23 2 -10 2 -28 0 -40z m-16 -7 c3 -27 1 -45 -7 -52
-15 -12 -29 20 -14 35 13 13 13 56 0 56 -5 0 -7 -8 -4 -17 5 -15 4 -15 -4 -3
-12 16 -5 33 11 27 7 -2 15 -23 18 -46z m-22 -141 c11 -24 11 -24 -3 -6 -9 11
-16 16 -16 10 0 -14 14 -30 30 -36 12 -5 12 -7 -3 -13 -12 -5 -24 -2 -33 7
-12 12 -13 20 -3 41 7 15 13 26 14 25 1 -2 8 -14 14 -28z m128 -217 c-20 -2
-52 -2 -70 0 -17 2 0 4 38 4 39 0 53 -2 32 -4z m33 -28 c0 -12 -14 -15 -65
-15 -51 0 -65 3 -65 15 0 12 14 15 65 15 51 0 65 -3 65 -15z"/>
<path d="M3380 3220 c0 -5 -7 -10 -17 -10 -9 0 -13 -3 -10 -7 4 -3 2 -12 -4
-20 -9 -10 -8 -13 1 -13 9 0 10 -3 1 -14 -14 -17 8 -29 30 -15 10 6 10 9 2 9
-17 0 -16 35 0 49 11 8 23 1 55 -34 22 -25 49 -45 59 -45 11 0 24 -5 30 -11 6
-6 16 -8 22 -5 18 11 13 26 -6 21 -10 -3 -2 3 17 12 20 10 43 25 52 33 15 14
15 16 0 33 -15 16 -15 17 1 12 9 -4 19 -15 22 -25 4 -11 12 -17 21 -13 7 3 14
1 14 -5 0 -6 -6 -12 -12 -15 -7 -2 -10 -8 -6 -12 11 -12 28 4 28 27 0 14 5 18
15 14 27 -10 16 9 -12 21 -44 18 -101 25 -108 13 -3 -5 -14 -10 -23 -9 -14 0
-13 2 3 9 19 8 19 9 -2 9 -27 1 -29 -13 -8 -53 12 -23 12 -27 1 -23 -7 3 -24
-2 -37 -11 -22 -15 -24 -14 -70 36 -48 53 -59 60 -59 42z"/>
<path d="M4627 3145 c5 -56 4 -65 -10 -65 -13 0 -15 7 -10 30 5 29 4 30 -29
30 -42 0 -50 -7 -38 -30 6 -12 17 -16 30 -13 11 3 20 0 20 -6 0 -6 -16 -11
-35 -11 -28 0 -35 -4 -35 -19 0 -11 5 -23 10 -26 6 -4 8 -10 5 -15 -3 -4 2
-10 10 -14 9 -3 16 -20 17 -43 1 -37 1 -37 5 -5 5 35 23 45 23 12 0 -13 7 -20
20 -20 13 0 20 7 20 20 0 17 7 20 45 20 38 0 45 -3 45 -20 0 -13 7 -20 20 -20
12 0 20 7 20 16 0 9 11 25 25 36 14 11 23 24 20 29 -4 5 -1 9 4 9 16 0 13 37
-3 43 -8 3 -24 3 -35 0 -12 -3 -21 -1 -21 6 0 6 11 11 24 11 20 0 36 16 36 36
0 2 -19 4 -41 4 -40 0 -41 -1 -36 -28 6 -27 5 -28 -44 -30 l-49 -2 0 40 c0 38
2 40 30 40 26 0 30 -4 31 -27 1 -22 3 -19 9 12 4 22 6 42 4 44 -2 2 -4 -1 -4
-7 0 -7 -16 -12 -40 -12 -32 0 -40 4 -39 18 0 10 3 12 6 5 2 -7 9 -13 14 -13
4 0 6 7 3 15 -4 8 -12 15 -20 15 -10 0 -12 -14 -7 -65z m167 -27 c-3 -4 -12
-8 -20 -8 -8 0 -14 4 -14 8 0 4 9 8 19 8 11 0 17 -4 15 -8z m-4 -82 c0 -2 -3
-11 -6 -20 -5 -13 -24 -16 -118 -14 -100 1 -105 2 -46 8 l65 7 -67 1 c-38 1
-68 6 -68 12 0 6 47 10 120 10 66 0 120 -2 120 -4z m-40 -67 c0 -5 -4 -9 -10
-9 -5 0 -10 7 -10 16 0 8 5 12 10 9 6 -3 10 -10 10 -16z m-130 1 c0 -5 -4 -10
-10 -10 -5 0 -10 5 -10 10 0 6 5 10 10 10 6 0 10 -4 10 -10z"/>
<path d="M4674 3194 c15 -14 17 -14 32 0 14 15 13 16 -16 16 -29 0 -30 -1 -16
-16z"/>
<path d="M3705 3143 c-4 -16 -10 -22 -12 -15 -10 26 -24 11 -18 -19 8 -36 -10
-32 -25 5 -8 20 -9 19 -9 -6 -1 -16 6 -31 17 -37 13 -8 14 -12 5 -22 -10 -10
-14 -7 -22 14 -7 19 -15 24 -30 20 -16 -4 -21 -1 -21 13 0 14 -3 15 -12 6 -7
-7 -19 -12 -28 -12 -20 0 -24 -39 -4 -47 9 -3 20 -1 27 6 8 8 6 11 -8 11 -16
0 -17 2 -6 9 23 14 91 -33 83 -57 -2 -7 11 -20 29 -29 17 -10 47 -30 64 -45
40 -34 62 -36 68 -5 4 19 4 18 6 -5 1 -22 -4 -29 -24 -34 -14 -3 -25 -10 -25
-15 0 -5 -12 -15 -26 -21 -25 -12 -26 -19 -9 -60 5 -13 -3 -22 -35 -38 -24
-12 -49 -18 -61 -15 -26 8 -24 23 4 28 15 4 12 5 -8 4 -23 -2 -30 -7 -30 -22
0 -29 44 -31 95 -5 47 24 58 43 39 66 -11 14 -9 19 16 38 16 11 38 26 50 31
32 16 29 47 -10 118 -24 44 -34 73 -30 87 9 29 28 25 21 -5 -4 -14 -3 -25 1
-25 12 0 35 16 34 24 -4 30 0 38 13 27 10 -9 12 -20 6 -42 -5 -16 -7 -29 -4
-29 7 0 27 52 30 78 2 20 1 22 -12 11 -11 -9 -18 -9 -26 -1 -20 20 -57 14 -74
-13 -19 -30 -13 -70 24 -138 14 -26 23 -50 19 -53 -3 -3 -21 5 -39 19 -18 13
-49 33 -68 42 l-35 18 23 15 c12 8 22 22 22 31 0 9 5 22 12 29 9 9 9 12 -2 13
-8 0 -4 5 10 11 15 6 20 12 13 15 -8 3 -11 14 -7 29 3 13 4 24 1 24 -3 0 -8
-12 -12 -27z m98 -20 c-7 -2 -19 -2 -25 0 -7 3 -2 5 12 5 14 0 19 -2 13 -5z
m-3 -172 c-1 -10 -50 73 -50 84 0 6 11 -10 25 -34 14 -23 25 -46 25 -50z"/>
<path d="M3600 3141 c-8 -6 -18 -7 -22 -5 -4 3 -8 0 -8 -5 0 -16 36 -13 50 4
14 17 3 20 -20 6z"/>
<path d="M3432 3100 c18 -22 38 -40 43 -40 6 0 6 3 0 8 -6 4 -21 22 -34 40
-12 17 -27 32 -32 32 -6 0 5 -18 23 -40z"/>
<path d="M3482 3045 c-20 -23 -60 -29 -100 -16 -41 14 -57 15 -57 4 0 -5 -4
-14 -8 -20 -5 -8 -3 -13 3 -13 7 0 9 -8 5 -21 -5 -15 -4 -19 4 -15 6 4 11 1
11 -7 0 -16 26 -17 55 -1 33 18 123 23 136 8 6 -8 19 -14 28 -14 10 0 5 7 -14
18 -24 15 -42 17 -86 12 -32 -3 -64 -12 -72 -19 -13 -10 -17 -9 -27 9 -6 12
-13 30 -15 42 -4 17 -1 19 18 13 53 -17 76 -16 116 4 22 12 41 24 41 26 0 11
-26 3 -38 -10z"/>
<path d="M3795 3050 c3 -5 8 -10 11 -10 2 0 4 5 4 10 0 6 -5 10 -11 10 -5 0
-7 -4 -4 -10z"/>
<path d="M4782 2950 c0 -19 2 -27 5 -17 2 9 2 25 0 35 -3 9 -5 1 -5 -18z"/>
<path d="M3605 2935 c26 -12 27 -13 8 -14 -12 -1 -26 -8 -31 -16 -7 -14 -12
-13 -35 6 -15 11 -35 18 -43 15 -19 -7 -15 -46 6 -56 57 -28 90 -38 95 -30 7
11 59 -12 71 -31 3 -6 0 -15 -7 -20 -11 -7 -11 -9 3 -9 25 0 32 20 12 34 -13
10 -16 21 -11 45 9 42 -5 66 -44 80 -44 15 -60 13 -24 -4z m-49 -42 c25 -16
27 -16 36 0 10 18 63 24 73 7 3 -5 3 -21 -1 -35 -5 -19 -11 -24 -23 -19 -9 4
-27 8 -41 9 -70 5 -106 26 -83 48 9 10 10 9 39 -10z"/>
<path d="M4788 2885 c-3 -16 -1 -25 7 -25 13 0 29 -56 19 -71 -3 -5 -22 -10
-42 -10 -25 -1 -30 -3 -13 -6 12 -3 34 -2 48 2 23 5 24 9 18 46 -4 22 -13 52
-20 65 l-13 25 -4 -26z"/>
<path d="M4208 2848 c-15 -15 -23 -28 -19 -28 9 0 56 49 50 53 -2 1 -16 -10
-31 -25z"/>
<path d="M4543 2873 c-7 -3 -12 -14 -12 -26 1 -16 2 -18 6 -5 2 9 10 15 16 13
36 -11 77 -13 77 -5 0 6 -15 10 -34 10 -19 0 -36 4 -38 9 -1 4 -9 6 -15 4z"/>
<path d="M4630 2874 c11 -3 14 -16 12 -53 l-4 -48 -51 3 c-28 2 -55 9 -60 16
-6 10 -8 9 -4 -2 5 -19 43 -27 135 -29 l72 -1 0 44 c0 38 3 45 23 49 l22 4
-22 2 c-13 0 -23 6 -23 11 0 6 -25 9 -57 9 -32 -1 -51 -3 -43 -5z m76 -28 c11
-45 1 -71 -28 -74 -27 -3 -28 -1 -28 41 0 48 5 57 31 57 11 0 21 -10 25 -24z"/>
<path d="M5211 2754 c0 -11 3 -14 6 -6 3 7 2 16 -1 19 -3 4 -6 -2 -5 -13z"/>
<path d="M3010 2753 c0 -4 5 -15 10 -23 8 -13 10 -13 10 2 0 9 -4 20 -10 23
-5 3 -10 3 -10 -2z"/>
<path d="M5201 2714 c0 -11 3 -14 6 -6 3 7 2 16 -1 19 -3 4 -6 -2 -5 -13z"/>
<path d="M4128 2663 c-10 -2 -18 -10 -18 -18 0 -7 -6 -18 -13 -24 -8 -6 -14
-30 -15 -53 -1 -28 -8 -48 -19 -56 -23 -17 -75 -9 -113 18 -17 12 -36 20 -43
17 -6 -2 -50 14 -97 36 -140 65 -170 77 -170 68 0 -4 56 -34 124 -66 69 -32
127 -64 130 -71 3 -8 11 -14 19 -14 7 0 37 -12 67 -27 l53 -26 44 23 c23 12
43 30 43 39 0 14 2 14 10 1 5 -8 10 -30 10 -47 0 -26 -4 -33 -19 -33 -11 0
-22 8 -24 18 -4 15 -5 15 -6 -2 -1 -14 -6 -17 -23 -13 -15 4 -30 -1 -45 -15
-14 -13 -23 -16 -23 -9 0 7 -7 19 -15 27 -8 9 -15 12 -15 8 0 -5 -5 -3 -11 3
-6 6 -18 9 -25 6 -8 -3 -14 0 -14 5 0 6 -10 14 -22 18 -37 12 -48 13 -48 2 0
-6 -7 -7 -15 -4 -19 7 -81 -32 -93 -59 -5 -11 -7 -37 -4 -58 3 -29 8 -37 20
-32 9 3 28 -6 46 -23 41 -38 59 -44 85 -26 20 14 21 14 21 -15 0 -26 -4 -31
-25 -31 -14 0 -29 -8 -35 -19 -15 -29 -12 -48 3 -26 10 13 21 16 41 11 17 -4
25 -3 22 3 -4 5 -2 12 4 16 5 3 10 -3 10 -14 0 -12 5 -21 10 -21 14 0 13 6 -7
47 -15 33 -15 36 0 48 9 7 17 17 17 24 0 6 4 11 10 11 5 0 7 6 5 13 -3 6 6 17
20 24 14 6 23 7 20 3 -3 -5 5 -10 17 -12 22 -3 23 -7 21 -75 -1 -40 2 -73 7
-73 4 0 6 9 3 20 -3 11 -1 20 5 20 12 0 24 -29 16 -41 -3 -5 2 -9 11 -9 9 0
13 -5 9 -11 -4 -8 -26 -10 -63 -6 -36 4 -50 3 -41 -3 8 -5 32 -10 52 -10 29 0
36 -3 32 -15 -4 -10 0 -15 14 -15 33 0 53 11 63 36 10 29 53 33 68 7 5 -10 31
-29 58 -43 45 -23 48 -28 51 -67 3 -39 10 -48 35 -44 4 0 6 -5 5 -11 -2 -7 4
-13 12 -13 19 0 25 42 9 61 -12 14 -14 14 -26 -2 -7 -10 -13 -13 -13 -7 0 7 5
15 10 18 6 3 10 24 10 46 0 30 -4 39 -17 41 -10 0 -22 2 -28 3 -5 2 -14 3 -19
4 -5 0 -4 7 2 14 6 7 14 32 18 55 l6 41 37 -14 c32 -13 34 -13 17 0 -19 14
-18 15 15 15 22 0 29 -3 21 -9 -10 -6 -8 -10 11 -15 32 -8 100 16 103 37 3 22
-92 41 -163 33 -38 -4 -62 -2 -83 9 -16 8 -38 15 -50 15 -11 0 -29 9 -40 20
-17 17 -20 31 -18 82 3 59 4 61 33 64 19 2 25 0 16 -5 -10 -6 -5 -14 17 -30
39 -27 53 -27 18 0 -15 12 -25 23 -22 26 8 8 67 -28 61 -37 -11 -18 35 -10 50
8 23 26 16 36 -34 49 -57 15 -74 16 -66 3 3 -5 28 -12 55 -16 52 -7 58 -12 39
-31 -9 -9 -25 -4 -64 18 -28 16 -59 29 -68 29 -23 0 -69 49 -63 67 3 8 6 17 6
19 0 2 4 4 9 4 5 0 21 4 35 10 31 11 26 35 -9 44 -13 3 -29 8 -37 10 -7 2 -21
2 -30 -1z m-48 -168 c0 -8 -7 -15 -15 -15 -26 0 -18 20 13 29 1 1 2 -6 2 -14z
m-76 -1 c17 -6 22 -24 8 -24 -5 0 -17 7 -28 15 -19 15 -8 20 20 9z m166 -24
c0 -16 -4 -30 -10 -30 -11 0 -14 43 -3 53 11 12 13 8 13 -23z m-257 -45 c18
-9 41 -22 52 -30 19 -15 19 -16 -6 -40 -14 -14 -38 -28 -55 -30 -16 -2 -24 -2
-17 1 7 3 9 12 6 20 -5 12 -7 12 -17 -2 -11 -14 -16 -12 -44 20 -37 42 -39 51
-14 65 25 15 59 13 95 -4z m220 -12 c-7 -2 -19 -2 -25 0 -7 3 -2 5 12 5 14 0
19 -2 13 -5z m-43 -24 c0 -16 -20 -19 -40 -7 -28 18 -25 25 10 20 17 -2 30 -8
30 -13z m68 -9 c6 0 12 -7 12 -16 0 -13 -6 -15 -27 -9 -16 4 -34 8 -40 8 -7 0
-13 3 -13 7 0 14 15 21 35 16 11 -3 26 -6 33 -6z m-85 -61 c-1 -13 0 -18 3
-11 3 6 19 12 36 12 30 0 31 0 13 -20 -10 -11 -26 -20 -36 -20 -18 0 -35 33
-25 49 4 5 1 12 -4 14 -6 3 -5 4 2 3 7 -2 12 -14 11 -27z m127 21 c0 -5 -4
-10 -10 -10 -5 0 -10 5 -10 10 0 6 5 10 10 10 6 0 10 -4 10 -10z m-52 -7 c-10
-2 -26 -2 -35 0 -10 3 -2 5 17 5 19 0 27 -2 18 -5z m31 -49 c-6 -19 -8 -41 -5
-47 2 -7 5 -4 5 6 1 10 9 17 20 17 11 0 23 5 26 10 3 6 15 10 27 10 17 0 18
-3 8 -15 -7 -8 -17 -12 -23 -8 -6 3 -7 1 -3 -6 5 -7 16 -9 28 -5 18 5 20 3 14
-19 -3 -15 -11 -39 -17 -54 l-11 -28 -21 25 c-12 14 -30 24 -39 22 -12 -2 -18
3 -18 14 0 17 -1 17 -13 -1 -16 -21 -37 -13 -37 15 0 10 -5 22 -11 26 -7 4 2
19 22 40 44 46 60 45 48 -2z m102 26 c31 -17 23 -32 -13 -25 -55 11 -68 16
-68 26 0 12 57 12 81 -1z m-341 -9 c0 -6 -4 -13 -10 -16 -5 -3 -10 1 -10 9 0
9 5 16 10 16 6 0 10 -4 10 -9z m275 -21 c-3 -5 -10 -10 -16 -10 -5 0 -9 5 -9
10 0 6 7 10 16 10 8 0 12 -4 9 -10z m252 -36 c-3 -3 -12 -4 -19 -1 -8 3 -5 6
6 6 11 1 17 -2 13 -5z m-358 -26 c5 -13 7 -25 5 -27 -7 -7 -34 21 -34 35 0 22
20 16 29 -8z m190 -31 c-8 -28 -17 -43 -25 -40 -13 5 -2 55 19 81 16 21 18 7
6 -41z m-402 27 c-3 -3 -12 -4 -19 -1 -8 3 -5 6 6 6 11 1 17 -2 13 -5z m243
-65 c0 -6 -4 -7 -10 -4 -5 3 -10 1 -10 -6 0 -7 -2 -10 -5 -7 -9 8 6 38 16 32
5 -3 9 -10 9 -15z"/>
<path d="M4408 2620 c30 -13 38 -37 18 -59 -9 -10 -16 -29 -16 -43 0 -15 -5
-29 -10 -31 -6 -3 -5 -4 2 -3 7 1 14 14 16 29 2 14 10 31 18 37 29 25 5 81
-34 79 -12 0 -10 -3 6 -9z"/>
<path d="M4315 2605 c-40 -19 -16 -19 26 0 19 8 27 14 19 14 -8 0 -28 -7 -45
-14z"/>
<path d="M4187 2584 c-16 -9 -26 -18 -23 -21 3 -3 12 0 20 6 8 7 27 16 43 21
20 6 22 8 8 9 -11 0 -33 -7 -48 -15z"/>
<path d="M4335 2549 l-40 -19 37 4 c43 5 98 37 63 35 -11 0 -38 -9 -60 -20z"/>
<path d="M3400 2348 c-37 -97 -85 -195 -108 -221 -8 -9 -13 -20 -10 -23 11
-10 76 111 117 215 22 58 39 107 37 109 -2 2 -18 -34 -36 -80z"/>
<path d="M4691 2364 c0 -11 3 -14 6 -6 3 7 2 16 -1 19 -3 4 -6 -2 -5 -13z"/>
<path d="M3472 2320 c0 -14 2 -19 5 -12 2 6 2 18 0 25 -3 6 -5 1 -5 -13z"/>
<path d="M4700 2333 c-1 -39 115 -237 153 -260 13 -8 6 3 -55 83 -21 27 -51
81 -67 119 -17 39 -31 65 -31 58z"/>
<path d="M3463 2230 c0 -30 2 -43 4 -27 2 15 2 39 0 55 -2 15 -4 2 -4 -28z"/>
<path d="M3601 2264 c0 -11 3 -14 6 -6 3 7 2 16 -1 19 -3 4 -6 -2 -5 -13z"/>
<path d="M4642 2235 c0 -16 2 -22 5 -12 2 9 2 23 0 30 -3 6 -5 -1 -5 -18z"/>
<path d="M3610 2229 c0 -34 72 -157 138 -234 37 -44 83 -100 100 -124 18 -24
32 -39 32 -34 0 12 -22 41 -110 148 -88 107 -109 138 -136 204 -13 31 -24 49
-24 40z"/>
<path d="M3542 2175 c0 -16 2 -22 5 -12 2 9 2 23 0 30 -3 6 -5 -1 -5 -18z"/>
<path d="M4616 2147 c-10 -29 -45 -97 -78 -152 -67 -111 -74 -123 -65 -114 27
23 140 220 157 272 18 58 7 53 -14 -6z"/>
<path d="M3857 2170 c-13 -49 -8 -78 19 -99 33 -26 51 -27 59 -1 8 25 -2 41
-22 38 -9 -2 -18 4 -20 12 -4 13 -3 13 7 0 10 -13 11 -13 6 3 -3 9 -9 24 -12
32 -4 10 0 15 12 15 16 0 17 2 4 10 -11 7 -18 5 -27 -6 -10 -14 -12 -13 -15 3
-3 14 -5 13 -11 -7z m19 -59 c-4 -5 6 -19 21 -30 16 -11 23 -21 17 -21 -18 0
-56 38 -49 49 3 6 8 11 11 11 3 0 3 -4 0 -9z"/>
<path d="M4684 2065 c0 -66 1 -92 3 -57 2 34 2 88 0 120 -2 31 -3 3 -3 -63z"/>
<path d="M3938 2163 c7 -3 16 -2 19 1 4 3 -2 6 -13 5 -11 0 -14 -3 -6 -6z"/>
<path d="M3552 2110 c0 -19 2 -27 5 -17 2 9 2 25 0 35 -3 9 -5 1 -5 -18z"/>
<path d="M3561 2054 c-2 -35 45 -171 55 -161 3 3 -2 19 -10 36 -9 17 -23 57
-30 88 -8 32 -15 49 -15 37z"/>
<path d="M3462 2010 c0 -14 2 -19 5 -12 2 6 2 18 0 25 -3 6 -5 1 -5 -13z"/>
<path d="M4188 1793 c7 -3 16 -2 19 1 4 3 -2 6 -13 5 -11 0 -14 -3 -6 -6z"/>
<path d="M4269 3913 c-13 -16 -12 -17 4 -4 9 7 17 15 17 17 0 8 -8 3 -21 -13z"/>
<path d="M4107 3863 c-10 -10 -8 -25 2 -18 5 3 13 0 16 -6 4 -5 14 -8 23 -4 8
3 19 0 24 -7 6 -10 8 -9 8 4 0 23 -18 32 -35 18 -12 -10 -15 -9 -15 4 0 16
-12 21 -23 9z"/>
<path d="M4855 2324 c-9 -15 -12 -23 -6 -20 11 7 35 46 28 46 -3 0 -12 -12
-22 -26z"/>
<path d="M4903 2270 c0 -25 2 -35 4 -22 2 12 2 32 0 45 -2 12 -4 2 -4 -23z"/>
<path d="M4944 2265 c8 -17 23 -39 35 -49 28 -25 27 -13 -1 17 -13 13 -29 32
-36 43 -7 11 -6 6 2 -11z"/>
<path d="M3451 4011 c-9 -6 -10 -11 -2 -15 17 -11 61 -103 53 -111 -4 -4 4 -2
18 5 15 8 20 15 12 18 -16 5 -63 97 -55 106 9 9 -10 7 -26 -3z"/>
<path d="M4787 3971 c-3 -15 -19 -42 -36 -60 l-29 -31 35 -25 c35 -23 53 -25
53 -5 0 5 -6 7 -13 4 -8 -3 -19 2 -26 10 -11 13 -9 22 10 53 12 21 28 43 35
49 10 8 9 12 -6 21 -15 10 -19 8 -23 -16z"/>
<path d="M3637 3961 c-4 -17 -3 -21 5 -13 5 5 8 16 6 23 -3 8 -7 3 -11 -10z"/>
<path d="M3355 3950 c-16 -11 -25 -20 -19 -20 13 0 67 -79 67 -97 0 -17 7 -16
31 2 18 13 18 15 3 15 -26 0 -31 25 -12 54 13 19 14 29 5 45 -14 26 -37 26
-75 1z m55 -5 c13 -16 10 -47 -5 -52 -16 -5 -48 54 -33 60 21 9 25 8 38 -8z"/>
<path d="M4892 3923 c5 -13 -56 -93 -71 -93 -11 0 -11 -3 -1 -15 15 -19 30
-19 30 -2 0 8 17 32 38 55 26 28 35 45 28 52 -12 12 -27 13 -24 3z"/>
<path d="M3272 3894 c-30 -21 -29 -62 1 -69 12 -3 33 -4 46 -3 30 4 53 -28 31
-42 -8 -5 -24 -7 -35 -3 -17 5 -18 4 -7 -10 13 -15 16 -15 38 0 16 10 24 25
24 44 0 27 -2 28 -52 31 -45 3 -53 6 -53 23 0 12 9 21 25 25 14 3 20 9 14 13
-6 3 -20 -1 -32 -9z"/>
<path d="M4948 3872 c-2 -9 -1 -49 2 -88 l5 -72 46 49 c36 40 43 52 32 61 -10
8 -13 7 -13 -3 -1 -8 -12 -27 -25 -44 l-25 -30 0 67 c0 63 -13 99 -22 60z"/>
<path d="M3190 3825 c-10 -12 -10 -15 2 -15 13 0 58 -40 58 -51 0 -3 -30 -3
-66 -1 l-66 4 51 -47 c29 -27 48 -52 44 -59 -4 -6 0 -5 9 2 15 12 13 17 -20
48 l-37 36 70 -7 70 -6 -50 53 c-27 29 -50 54 -51 56 -1 1 -7 -4 -14 -13z"/>
<path d="M4901 3806 c-29 -30 -30 -34 -14 -40 9 -4 14 -4 10 0 -4 4 5 20 20
36 14 15 24 30 22 33 -3 2 -20 -10 -38 -29z"/>
<path d="M5051 3714 c-35 -13 -67 -21 -72 -18 -5 3 -6 -2 -3 -10 7 -18 24 -22
24 -6 0 17 26 11 46 -11 15 -16 16 -24 7 -39 -10 -14 -9 -21 2 -30 12 -10 15
-9 15 4 0 9 12 39 26 67 14 28 24 54 22 59 -2 4 -32 -3 -67 -16z m39 -6 c0 -7
-4 -19 -9 -27 -8 -13 -12 -13 -26 -1 -15 12 -14 15 7 26 29 17 28 16 28 2z"/>
<path d="M3057 3682 c-26 -29 -22 -77 9 -101 34 -27 68 -27 94 1 23 25 25 40
8 71 -25 48 -81 62 -111 29z m76 -21 c30 -26 40 -50 26 -67 -18 -22 -57 -17
-84 11 -58 57 -3 109 58 56z"/>
<path d="M2966 3558 c-22 -32 -20 -55 9 -84 35 -35 93 -31 115 8 11 21 12 30
3 39 -9 9 -11 7 -7 -7 8 -31 -28 -58 -62 -47 -60 20 -78 84 -30 103 16 7 17 9
4 9 -9 1 -24 -9 -32 -21z"/>
<path d="M5224 3552 c3 -5 -2 -19 -10 -31 -13 -17 -19 -20 -30 -10 -20 17 -17
29 8 29 12 0 19 2 17 5 -3 2 -29 2 -57 -2 -43 -5 -50 -8 -40 -20 8 -10 13 -11
19 -2 9 16 35 5 48 -20 9 -15 7 -23 -5 -36 -12 -11 -13 -20 -6 -27 6 -6 12 -5
18 4 4 7 23 37 41 66 32 49 32 52 13 52 -12 0 -19 -4 -16 -8z"/>
<path d="M5225 3425 c-14 -13 -25 -34 -24 -47 0 -23 0 -23 9 -2 18 45 90 70
118 42 7 -7 12 -9 12 -6 0 4 -7 14 -16 22 -23 24 -71 20 -99 -9z"/>
<path d="M2875 3390 c-8 -13 5 -13 25 0 13 8 13 10 -2 10 -9 0 -20 -4 -23 -10z"/>
<path d="M5336 3384 c-4 -9 -4 -19 -1 -22 2 -3 7 3 11 12 4 9 4 19 1 22 -2 3
-7 -3 -11 -12z"/>
<path d="M2863 3350 c2 -31 33 -38 77 -15 17 9 35 13 40 10 18 -11 10 -46 -12
-55 -14 -5 -17 -9 -7 -9 37 -2 53 55 23 80 -14 11 -21 10 -46 -4 -38 -22 -65
-22 -72 1 -3 10 -4 6 -3 -8z"/>
<path d="M5216 3336 c3 -9 16 -16 28 -15 14 0 16 2 6 6 -8 3 -21 10 -28 16 -9
7 -11 6 -6 -7z"/>
<path d="M2837 3293 c-13 -12 -7 -29 11 -30 9 -1 38 -10 64 -22 40 -17 47 -18
52 -4 8 21 7 25 -4 18 -11 -7 -101 23 -111 37 -3 5 -8 5 -12 1z"/>
<path d="M5243 3285 c2 -5 14 -9 25 -7 16 2 25 -4 32 -23 13 -35 13 -34 -10
-43 -12 -5 -16 -12 -11 -20 5 -9 24 3 67 42 l59 54 -83 4 c-52 2 -81 -1 -79
-7z m102 -25 c-10 -11 -21 -20 -25 -20 -4 0 -10 9 -13 20 -4 17 0 20 25 20 30
0 31 0 13 -20z"/>
<path d="M2812 3208 c-7 -7 -12 -19 -12 -27 0 -11 4 -10 15 5 15 19 15 19 34
-4 12 -13 22 -18 26 -12 10 16 43 12 54 -7 9 -16 10 -16 11 -2 0 25 -27 42
-54 35 -15 -4 -28 0 -36 9 -15 18 -22 19 -38 3z"/>
<path d="M5356 3165 c-28 -8 -53 -12 -58 -9 -11 7 -10 -3 2 -48 6 -21 19 -42
30 -48 50 -27 110 5 110 58 l-1 27 -13 -31 c-8 -17 -21 -34 -31 -38 -46 -17
-90 4 -83 40 3 18 93 48 110 38 4 -3 8 2 8 10 0 19 -8 19 -74 1z"/>
<path d="M2790 3148 c0 -8 15 -14 35 -15 19 -1 48 -8 64 -16 17 -8 32 -12 35
-9 9 9 7 34 -2 28 -5 -3 -30 1 -57 9 -59 18 -75 19 -75 3z"/>
<path d="M2777 3063 c-19 -70 -21 -68 39 -70 30 0 61 -7 69 -13 12 -10 15 -9
15 9 0 11 -3 20 -7 20 -23 -4 -53 2 -53 10 0 5 16 15 35 22 19 7 35 19 35 26
0 11 -7 10 -31 -2 -28 -15 -32 -15 -48 -1 -23 21 -49 20 -54 -1z m51 -29 c3
-18 -1 -21 -22 -17 -15 3 -26 11 -26 17 0 33 43 33 48 0z"/>
<path d="M5440 3020 c-9 -5 -39 -10 -68 -12 -42 -2 -52 -6 -52 -20 0 -20 15
-24 25 -8 8 13 45 13 45 -1 0 -6 7 -3 16 5 19 19 40 21 47 4 3 -7 6 -1 6 15 1
30 2 30 -19 17z"/>
<path d="M5450 2955 c-8 -9 -8 -15 -2 -15 12 0 26 19 19 26 -2 2 -10 -2 -17
-11z"/>
<path d="M5331 2943 c-1 -16 5 -23 17 -23 10 0 13 3 6 8 -6 4 -14 14 -17 22
-4 10 -6 8 -6 -7z"/>
<path d="M5385 2950 c-3 -5 1 -10 9 -10 9 0 16 5 16 10 0 6 -4 10 -9 10 -6 0
-13 -4 -16 -10z"/>
<path d="M2767 2932 c-35 -38 -14 -95 38 -108 26 -6 76 14 82 33 3 8 -5 7 -26
-3 -53 -27 -121 12 -95 54 15 24 81 28 105 6 23 -21 26 -2 3 20 -22 22 -87 21
-107 -2z"/>
<path d="M5340 2883 c0 -5 24 -7 52 -5 l53 2 -50 -26 -49 -27 49 -25 c53 -28
46 -38 -21 -30 -20 2 -34 0 -34 -7 0 -6 26 -10 65 -10 76 0 84 13 25 40 -22
10 -40 21 -40 25 0 3 18 16 40 29 22 12 40 26 40 32 0 5 -29 9 -65 9 -36 0
-65 -3 -65 -7z"/>
<path d="M2762 2718 c-7 -7 -12 -19 -12 -27 0 -11 5 -8 16 7 18 25 15 39 -4
20z"/>
<path d="M2818 2694 c-16 -27 -26 -34 -41 -30 -18 4 -19 3 -5 -10 19 -19 38
-11 63 28 11 18 26 33 32 36 19 5 28 -28 14 -49 -9 -15 -8 -19 4 -19 16 0 20
34 9 64 -11 30 -53 19 -76 -20z"/>
<path d="M5330 2704 c0 -13 7 -19 23 -20 12 0 42 -2 67 -5 34 -3 46 0 48 11 2
12 -8 14 -53 12 -34 -3 -61 1 -70 8 -12 10 -15 9 -15 -6z"/>
<path d="M5320 2646 c0 -9 3 -15 8 -15 22 4 32 -3 33 -23 0 -19 2 -20 7 -6 7
16 9 16 31 -1 l24 -18 -47 -12 c-26 -6 -51 -9 -57 -6 -5 4 -9 -2 -9 -13 0 -18
2 -18 75 1 l75 20 -33 22 c-87 58 -107 67 -107 51z"/>
<path d="M2838 2596 c-32 -23 -58 -44 -58 -47 0 -4 30 -12 66 -19 39 -8 68
-18 71 -27 9 -23 -32 -57 -69 -57 -24 -1 -34 -6 -36 -20 -4 -17 -2 -17 18 -3
24 17 50 13 50 -8 0 -16 -35 -29 -50 -20 -5 3 -10 0 -10 -7 0 -17 20 -47 20
-31 0 14 95 47 110 38 11 -7 13 5 4 29 -5 14 -8 14 -21 1 -14 -15 -43 -21 -43
-9 0 3 11 19 24 35 21 25 23 34 15 58 -8 22 -15 28 -30 24 -10 -3 -19 -1 -19
5 0 6 -9 8 -20 5 -11 -3 -27 -2 -37 1 -14 6 -14 9 6 23 20 13 25 13 32 2 6
-10 9 -8 9 9 0 20 10 27 33 23 9 -1 9 11 -1 25 -4 7 -27 -3 -64 -30z"/>
<path d="M5270 2420 c-20 -20 -28 -70 -11 -70 5 0 7 9 4 20 -15 56 62 68 110
18 18 -20 28 -26 24 -15 -4 10 -7 23 -7 28 0 12 -55 39 -80 39 -11 0 -29 -9
-40 -20z"/>
<path d="M2964 2354 c23 -22 20 -39 -8 -52 -20 -9 -25 -8 -30 4 -3 9 -4 20 0
25 7 11 -7 11 -24 0 -11 -7 -11 -9 2 -14 22 -9 20 -24 -5 -38 -25 -13 -42 4
-35 35 4 14 2 16 -6 8 -9 -9 -7 -21 6 -49 10 -20 21 -33 24 -27 10 14 80 44
102 44 17 0 18 2 3 40 -9 22 -22 40 -30 40 -12 0 -12 -3 1 -16z"/>
<path d="M5368 2328 c-14 -14 -15 -18 -4 -18 8 0 17 7 20 16 9 23 4 24 -16 2z"/>
<path d="M5235 2308 c-44 -25 -48 -76 -9 -107 32 -25 61 -27 92 -5 31 21 31
78 0 98 -35 22 -61 26 -83 14z m63 -28 c27 -16 33 -26 30 -48 -2 -22 -9 -28
-34 -30 -55 -5 -105 53 -72 86 17 17 38 15 76 -8z"/>
<path d="M3026 2231 c-4 -6 -29 -22 -56 -36 -42 -21 -49 -22 -54 -9 -3 9 -3
21 0 27 5 9 4 9 -5 1 -16 -15 26 -104 48 -104 13 1 13 2 -1 11 -10 5 -18 15
-18 22 0 12 88 64 102 60 10 -4 10 9 -1 26 -6 9 -11 10 -15 2z"/>
<path d="M5167 2193 c-3 -3 1 -12 9 -20 13 -13 13 -18 1 -37 -9 -12 -25 -21
-41 -21 -14 1 -27 -4 -30 -10 -4 -11 132 -41 141 -31 2 2 -14 31 -35 64 -22
34 -42 59 -45 55z m53 -84 c10 -18 9 -19 -17 -13 -37 9 -38 11 -23 29 14 17
25 13 40 -16z"/>
<path d="M3070 2149 c-13 -7 -12 -9 2 -9 25 0 34 -41 13 -57 -20 -14 -50 0
-39 18 6 10 -9 12 -19 2 -4 -3 1 -12 11 -19 16 -12 16 -14 -4 -35 l-22 -21
-11 21 c-7 12 -9 27 -5 34 5 9 4 9 -6 0 -10 -9 -9 -17 6 -42 16 -28 23 -31 64
-30 44 2 44 2 10 8 l-35 6 25 18 c24 17 26 17 42 -3 9 -11 20 -20 24 -20 4 0
-1 9 -12 21 -18 20 -18 21 0 34 17 13 17 15 -6 49 -18 26 -28 32 -38 25z"/>
<path d="M5050 2040 c-21 -21 -26 -45 -11 -54 5 -4 7 2 4 13 -6 23 30 51 58
44 27 -7 61 -53 57 -77 -2 -11 -14 -26 -28 -33 -16 -8 -19 -13 -9 -13 25 0 49
33 49 68 0 59 -79 93 -120 52z"/>
<path d="M3160 2031 c0 -5 5 -13 10 -16 6 -3 10 -2 10 4 0 5 -4 13 -10 16 -5
3 -10 2 -10 -4z"/>
<path d="M3185 1990 c-3 -5 3 -10 14 -10 26 0 45 -34 32 -58 -29 -54 -86 -67
-107 -24 -7 13 -14 20 -18 14 -7 -12 27 -48 53 -57 22 -7 59 9 78 34 20 25 15
66 -10 89 -26 25 -33 27 -42 12z"/>
<path d="M4964 1938 c-10 -13 -15 -20 -10 -15 6 4 29 -11 53 -35 31 -31 40
-45 32 -54 -6 -7 -18 -10 -26 -7 -11 4 -14 2 -9 -5 12 -19 24 -14 65 27 36 36
38 41 23 53 -13 10 -14 10 -8 0 4 -7 2 -20 -5 -28 -11 -13 -18 -9 -55 27 -24
23 -41 46 -38 51 10 16 -3 7 -22 -14z"/>
<path d="M4873 1861 c-17 -14 -29 -32 -26 -39 4 -10 9 -6 17 10 14 28 35 30
50 5 9 -15 7 -21 -8 -33 -16 -11 -17 -17 -8 -26 9 -9 12 -8 12 4 0 25 20 33
37 15 20 -20 10 -47 -19 -47 -16 0 -19 -3 -11 -11 8 -8 21 -4 47 17 20 16 31
30 24 32 -7 1 -29 24 -49 51 l-35 49 -31 -27z"/>
<path d="M3330 1830 c0 -32 -4 -40 -19 -40 -10 0 -25 -7 -32 -16 -12 -14 -9
-20 21 -47 32 -28 34 -29 41 -10 4 11 23 36 42 56 28 30 32 39 20 48 -7 7 -14
10 -16 8 -1 -2 -6 -12 -12 -22 -16 -29 -30 -15 -27 26 2 22 -1 37 -7 37 -6 0
-11 -18 -11 -40z m20 -57 c-1 -14 -27 -43 -38 -43 -18 0 -24 20 -12 35 13 15
50 21 50 8z"/>
<path d="M4804 1804 c-10 -8 -14 -13 -7 -10 9 5 53 -53 53 -70 0 -3 -15 4 -34
15 -18 12 -36 21 -40 21 -3 0 -5 -19 -4 -42 1 -37 2 -38 5 -11 l4 32 39 -24
c37 -24 60 -31 60 -20 0 3 -14 27 -31 55 -17 27 -28 54 -24 60 9 14 2 12 -21
-6z"/>
<path d="M3429 1784 c-10 -12 -9 -13 5 -8 15 6 46 -11 46 -25 0 -3 -7 -15 -15
-25 -14 -18 -16 -18 -34 -2 -15 14 -19 14 -24 3 -3 -9 1 -14 11 -13 19 1 26
-23 13 -43 -7 -10 -13 -11 -30 -2 -12 7 -18 17 -15 23 4 7 3 8 -4 4 -19 -12
-14 -20 29 -44 23 -13 39 -19 35 -14 -8 14 53 114 65 106 5 -3 9 -3 9 -1 0 2
-18 16 -39 30 -34 23 -41 24 -52 11z"/>
<path d="M4708 1749 c-16 -9 -16 -11 3 -30 12 -12 29 -39 39 -62 14 -31 20
-37 25 -25 4 9 -5 34 -21 60 -15 23 -27 49 -27 55 0 7 -1 13 -1 13 -1 0 -9 -5
-18 -11z"/>
<path d="M3566 1719 c9 -15 -36 -109 -52 -109 -7 0 -18 8 -23 18 -10 16 -10
16 -11 0 0 -11 17 -25 46 -38 53 -23 64 -24 64 -9 0 5 -4 8 -9 5 -5 -4 -16 -3
-24 0 -14 5 -13 12 4 52 11 26 26 52 34 58 12 9 10 13 -11 23 -18 8 -23 8 -18
0z"/>
<path d="M4659 1723 c-1 -5 -1 -16 0 -25 2 -11 -9 -23 -24 -30 -23 -10 -29
-10 -40 5 -7 10 -19 15 -28 11 -13 -4 -3 -17 41 -55 61 -52 72 -57 72 -34 0 8
-6 15 -13 15 -8 0 -22 9 -31 19 -17 19 -17 20 2 30 17 9 21 8 24 -7 3 -9 6 4
9 31 2 26 1 47 -3 47 -5 0 -9 -3 -9 -7z"/>
<path d="M3647 1619 c-9 -32 -23 -59 -30 -59 -8 0 -7 -4 3 -10 21 -14 30 -12
24 4 -3 7 1 28 8 46 l14 34 18 -50 c31 -82 51 -96 51 -36 1 20 8 52 17 70 14
27 14 32 2 32 -8 0 -14 -9 -14 -19 0 -11 -5 -32 -11 -48 l-11 -28 -24 59 c-13
33 -25 60 -27 62 -1 1 -10 -24 -20 -57z"/>
<path d="M4493 1658 c-24 -8 -33 -17 -32 -32 1 -16 2 -17 6 -4 4 18 30 31 43
23 12 -7 41 -96 34 -106 -3 -5 1 -9 8 -9 16 0 47 20 31 20 -11 0 -46 79 -46
106 0 16 0 16 -44 2z"/>
<path d="M3796 1626 c8 -22 -15 -116 -29 -117 -10 0 19 -16 33 -18 3 -1 5 16
5 37 1 20 8 52 17 70 9 17 13 32 8 32 -5 0 -16 3 -24 6 -12 5 -15 2 -10 -10z"/>
<path d="M4415 1635 c-5 -2 -22 -6 -37 -9 -18 -4 -28 -13 -28 -24 1 -16 1 -16
11 1 19 33 46 20 58 -27 17 -69 15 -79 -14 -74 -14 3 -25 1 -25 -3 0 -11 16
-11 57 -3 30 6 30 6 16 36 -8 16 -16 47 -17 69 0 21 -3 39 -6 38 -3 0 -9 -2
-15 -4z"/>
<path d="M3932 1598 c-20 -20 -14 -42 18 -73 17 -16 30 -33 30 -37 0 -18 -32
-20 -50 -3 -17 15 -20 16 -20 3 0 -20 45 -32 70 -18 28 15 25 31 -10 65 -16
16 -30 35 -30 42 0 22 29 27 50 8 17 -15 20 -16 20 -3 0 27 -56 38 -78 16z"/>
<path d="M4288 1602 c7 -5 16 -26 19 -48 6 -37 5 -38 -13 -25 -10 8 -34 29
-52 45 -33 31 -33 31 -27 6 3 -14 7 -46 8 -72 1 -29 7 -48 14 -48 8 0 9 9 2
36 -16 55 -7 59 42 15 46 -40 67 -45 49 -11 -5 9 -10 38 -12 63 -3 39 -6 47
-23 47 -14 0 -16 -3 -7 -8z"/>
<path d="M4028 1593 c15 -6 16 -86 2 -114 -9 -17 -7 -19 17 -19 20 0 24 3 14
9 -11 7 -12 21 -4 70 l10 61 -26 -1 c-14 0 -20 -3 -13 -6z"/>
<path d="M4113 1593 c-26 -10 -14 -50 22 -78 31 -23 34 -29 23 -43 -11 -13
-11 -14 2 -10 28 9 23 45 -9 68 -34 24 -42 60 -13 60 10 0 23 -5 30 -12 9 -9
12 -8 12 5 0 17 -37 23 -67 10z"/>
<path d="M4370 1562 c1 -20 16 -29 27 -17 9 10 8 14 -8 18 -10 3 -19 2 -19 -1z"/>
<path d="M4100 1477 c0 -10 8 -17 18 -17 9 0 13 4 7 8 -5 4 -13 11 -17 16 -5
5 -8 2 -8 -7z"/>
<path d="M7749 4235 c-100 -19 -173 -47 -245 -94 -147 -95 -214 -222 -214
-405 0 -193 55 -302 197 -393 82 -52 182 -88 388 -137 313 -76 361 -94 409
-159 31 -42 35 -150 7 -205 -38 -75 -108 -114 -240 -132 -151 -20 -297 19
-379 103 -41 42 -72 108 -72 153 l0 24 -175 0 -175 0 0 -25 c0 -60 34 -185 68
-249 80 -153 228 -247 453 -287 116 -21 358 -18 449 5 217 54 369 179 420 343
24 78 27 240 6 320 -56 209 -173 282 -648 402 -230 58 -282 79 -333 131 -34
35 -39 47 -43 98 -5 73 21 131 76 166 130 85 412 62 501 -39 27 -32 53 -89 65
-147 l6 -28 170 0 170 0 0 28 c0 48 -38 180 -67 235 -15 29 -57 82 -93 118
-73 74 -187 137 -300 164 -94 23 -307 28 -401 10z"/>
<path d="M10735 4233 c-305 -65 -507 -279 -588 -626 -18 -78 -21 -123 -21
-297 0 -190 2 -212 27 -303 66 -245 200 -420 392 -512 112 -54 197 -75 328
-81 380 -20 660 190 766 574 l20 72 -184 0 -183 0 -6 -34 c-21 -110 -126 -235
-231 -276 -83 -31 -216 -32 -297 -1 -196 75 -301 346 -268 690 30 316 158 478
395 498 174 14 332 -90 392 -258 l18 -49 181 0 182 0 -13 68 c-53 277 -257
477 -547 536 -96 20 -269 19 -363 -1z"/>
<path d="M5790 3554 c0 -702 1 -715 64 -844 64 -133 208 -235 386 -275 113
-25 277 -30 397 -11 290 44 466 194 518 443 12 55 15 186 15 696 l0 627 -180
0 -180 0 0 -572 c0 -321 -5 -603 -10 -641 -27 -182 -129 -262 -335 -262 -89 0
-105 3 -151 27 -63 33 -107 84 -137 158 -22 55 -22 60 -25 673 l-3 617 -179 0
-180 0 0 -636z"/>
<path d="M9212 4163 c-16 -39 -602 -1685 -602 -1689 0 -3 86 -3 192 -2 l191 3
52 155 c29 86 57 166 64 178 12 22 13 22 321 22 285 0 310 -1 318 -17 5 -10
31 -91 58 -180 l49 -163 197 0 197 0 -47 133 c-26 72 -162 458 -302 857 l-255
725 -211 3 -211 2 -11 -27z m322 -698 c54 -170 99 -318 102 -327 5 -17 -10
-18 -210 -18 -119 0 -216 3 -216 7 0 26 215 671 221 661 4 -7 50 -152 103
-323z"/>
<path d="M9429 2120 c-1 -74 -4 -184 -8 -245 -6 -106 -7 -109 -31 -116 -14 -4
15 -7 65 -7 50 1 77 3 62 5 -40 6 -47 34 -47 199 l0 144 176 -180 c97 -99 181
-180 185 -180 5 0 9 98 9 218 0 119 3 227 6 238 3 12 15 26 27 31 15 7 -3 9
-63 10 -75 0 -80 -1 -53 -12 17 -7 33 -23 36 -36 4 -13 7 -90 7 -171 l0 -147
-123 127 c-67 70 -151 156 -185 192 l-62 65 -1 -135z"/>
<path d="M10147 2243 c-3 -4 -44 -107 -92 -228 -47 -121 -93 -227 -102 -237
-8 -9 -25 -19 -37 -21 -11 -2 17 -4 64 -4 47 0 75 2 63 4 -29 6 -29 28 -2 105
l22 59 75 -3 75 -3 28 -74 c16 -41 26 -78 23 -82 -3 -5 32 -8 78 -8 46 1 71 4
56 6 -15 2 -36 16 -46 31 -11 15 -56 122 -101 237 -82 209 -94 234 -104 218z
m22 -203 c10 -30 22 -63 26 -72 6 -16 0 -18 -54 -18 -34 0 -61 3 -61 6 0 22
55 153 61 147 5 -5 17 -33 28 -63z"/>
<path d="M11358 2224 c-8 -16 -50 -119 -93 -229 -43 -110 -85 -208 -93 -218
-12 -14 -28 -17 -66 -15 l-51 3 0 225 c0 222 0 225 22 236 19 9 6 11 -67 10
-62 0 -84 -3 -72 -10 9 -5 20 -14 24 -20 9 -13 10 -391 2 -423 -5 -19 -13 -23
-44 -23 -48 0 -79 25 -167 134 -53 66 -62 82 -50 91 33 24 67 88 67 126 0 100
-38 122 -215 124 -88 2 -122 -1 -105 -7 13 -5 28 -14 32 -21 9 -14 11 -391 2
-424 -3 -12 -16 -24 -28 -26 -11 -2 24 -4 79 -4 55 0 89 2 75 4 -40 7 -50 30
-50 115 l0 78 35 0 c32 0 39 -6 83 -67 26 -38 62 -83 80 -100 l33 -33 242 1
c160 0 234 3 219 10 -26 10 -26 10 10 107 l19 52 74 0 73 0 27 -70 c15 -39 24
-77 21 -85 -4 -13 8 -15 77 -14 45 1 73 4 62 6 -39 10 -55 38 -136 242 -45
113 -87 217 -94 230 l-13 25 -14 -30z m-696 -43 c31 -27 33 -34 33 -94 0 -86
-19 -109 -84 -105 l-46 3 -3 99 c-1 55 0 106 2 113 9 24 64 15 98 -16z m729
-156 l28 -75 -64 0 -64 0 13 33 c7 17 21 54 30 80 10 27 21 45 24 42 3 -3 18
-39 33 -80z"/>
<path d="M5766 2215 c-7 -26 -6 -75 1 -55 11 30 37 40 105 40 l68 0 -1 -187
c-2 -222 -5 -245 -39 -254 -14 -4 22 -7 80 -7 58 0 92 3 75 7 -40 8 -42 24
-44 254 l-1 187 54 0 c66 0 103 -13 109 -37 3 -10 5 2 6 27 l1 45 -205 0
c-196 0 -204 -1 -209 -20z"/>
<path d="M6269 2224 l31 -13 -2 -223 -3 -222 -25 -7 c-14 -4 20 -7 75 -7 55 0
87 3 70 7 l-30 6 -3 93 -3 92 34 0 c32 0 39 -6 86 -74 28 -41 65 -86 82 -100
30 -26 32 -26 192 -25 89 1 149 4 132 8 -20 4 -31 14 -36 31 -9 30 -11 376 -3
406 3 12 15 26 26 31 13 6 -10 9 -74 9 -66 1 -85 -2 -67 -8 15 -5 30 -19 33
-31 8 -30 6 -376 -3 -407 -6 -21 -14 -25 -50 -28 -40 -3 -47 0 -85 40 -23 24
-63 72 -90 107 l-48 62 25 27 c30 31 57 91 57 124 0 34 -36 87 -68 100 -15 6
-85 12 -156 13 -115 2 -125 1 -97 -11z m198 -34 c40 -24 59 -82 44 -136 -15
-55 -37 -74 -88 -74 l-43 0 0 115 0 115 28 0 c15 0 41 -9 59 -20z"/>
<path d="M7156 2226 c-108 -40 -164 -134 -153 -257 8 -95 50 -155 137 -199 35
-18 67 -24 140 -27 119 -5 141 5 152 67 9 51 3 64 -11 27 -16 -40 -55 -60
-120 -61 -151 -2 -248 155 -201 324 13 48 65 96 118 110 91 24 199 -26 203
-93 1 -12 5 5 9 38 4 33 3 64 -1 69 -15 17 -229 18 -273 2z"/>
<path d="M7540 2228 c35 -13 40 -42 39 -225 -2 -212 -5 -235 -39 -243 -14 -4
40 -9 120 -13 163 -7 171 -4 169 62 0 20 -3 29 -6 21 -14 -39 -36 -50 -95 -50
-54 0 -59 2 -68 26 -6 14 -10 61 -10 105 l0 80 62 -3 c54 -3 64 -6 74 -27 11
-21 12 -19 15 28 4 47 3 50 -16 43 -11 -4 -45 -7 -75 -7 l-55 0 -3 88 -3 87
58 0 c63 0 74 -5 91 -35 10 -17 11 -14 12 25 l0 45 -144 0 c-80 0 -136 -3
-126 -7z"/>
<path d="M7969 2028 c-1 -117 -4 -224 -8 -238 -4 -14 -17 -27 -31 -31 -14 -4
15 -7 65 -7 51 0 77 3 60 7 -38 8 -42 26 -44 205 l-1 138 176 -181 c97 -99
180 -181 185 -181 5 0 9 83 10 188 1 238 7 283 37 298 19 9 9 11 -59 11 -58
-1 -75 -3 -58 -9 13 -5 27 -14 31 -21 4 -7 8 -84 7 -172 l0 -160 -177 183
c-97 100 -180 182 -184 182 -5 0 -8 -96 -9 -212z"/>
<path d="M8496 2206 c-11 -52 -7 -60 15 -32 19 24 27 26 90 26 l69 0 0 -197
c0 -109 -3 -208 -6 -220 -3 -12 -16 -24 -28 -26 -11 -2 24 -4 79 -4 55 -1 87
2 70 6 l-30 6 -3 218 -2 217 55 0 c63 0 95 -12 96 -38 1 -21 17 24 18 53 1 19
-5 20 -208 20 l-210 0 -5 -29z"/>
<path d="M9000 2228 c35 -13 40 -42 39 -225 -2 -212 -5 -235 -39 -243 -14 -4
40 -9 120 -13 163 -7 171 -4 169 62 0 20 -3 29 -6 21 -14 -39 -36 -50 -95 -50
-54 0 -59 2 -68 26 -6 14 -10 61 -10 105 l0 80 62 -3 c54 -3 64 -6 74 -27 11
-21 12 -19 15 28 4 47 3 50 -16 43 -11 -4 -45 -7 -75 -7 l-55 0 -3 88 -3 87
58 0 c63 0 74 -5 91 -35 10 -17 11 -14 12 25 l0 45 -144 0 c-80 0 -136 -3
-126 -7z"/>
<path d="M5830 1497 c0 -114 6 -127 64 -141 35 -9 93 10 106 34 6 10 10 62 10
115 0 94 -1 96 -22 93 -22 -3 -23 -8 -26 -92 -3 -93 -11 -116 -43 -116 -34 0
-49 39 -49 127 0 76 -2 83 -20 83 -19 0 -20 -7 -20 -103z"/>
<path d="M6210 1580 c0 -13 7 -20 20 -20 13 0 20 7 20 20 0 13 -7 20 -20 20
-13 0 -20 -7 -20 -20z"/>
<path d="M6900 1580 c0 -13 7 -20 20 -20 13 0 20 7 20 20 0 13 -7 20 -20 20
-13 0 -20 -7 -20 -20z"/>
<path d="M7080 1560 c0 -37 -2 -40 -19 -30 -57 30 -101 -5 -101 -80 0 -37 5
-55 20 -70 22 -22 69 -27 88 -8 9 9 12 9 12 0 0 -7 9 -12 20 -12 19 0 20 7 20
120 0 113 -1 120 -20 120 -17 0 -20 -7 -20 -40z m-12 -72 c24 -24 7 -98 -23
-98 -22 0 -45 29 -45 59 0 30 16 51 40 51 9 0 21 -5 28 -12z"/>
<path d="M7430 1560 c0 -37 -2 -40 -19 -30 -57 30 -101 -5 -101 -80 0 -37 5
-55 20 -70 22 -22 69 -27 88 -8 9 9 12 9 12 0 0 -7 9 -12 20 -12 19 0 20 7 20
120 0 113 -1 120 -20 120 -17 0 -20 -7 -20 -40z m-12 -72 c24 -24 7 -98 -23
-98 -22 0 -45 29 -45 59 0 30 16 51 40 51 9 0 21 -5 28 -12z"/>
<path d="M7700 1560 c0 -37 -2 -40 -19 -30 -57 30 -101 -5 -101 -80 0 -37 5
-55 20 -70 22 -22 69 -27 88 -8 9 9 12 9 12 0 0 -7 9 -12 20 -12 19 0 20 7 20
120 0 113 -1 120 -20 120 -17 0 -20 -7 -20 -40z m-12 -72 c24 -24 7 -98 -23
-98 -22 0 -45 29 -45 59 0 30 16 51 40 51 9 0 21 -5 28 -12z"/>
<path d="M8042 1584 c-15 -10 -22 -25 -22 -49 0 -40 20 -57 88 -75 49 -13 64
-36 37 -56 -26 -19 -52 -17 -75 6 -25 25 -50 26 -50 2 0 -33 36 -55 89 -56 61
-1 91 22 91 70 0 43 -18 59 -80 74 -57 14 -74 35 -45 56 26 19 42 17 65 -6 27
-27 60 -27 53 0 -12 47 -103 68 -151 34z"/>
<path d="M8687 1579 c-48 -37 -57 -129 -20 -186 18 -27 72 -46 107 -37 25 6
76 56 76 75 0 18 -40 8 -64 -16 -31 -31 -41 -31 -73 1 -22 22 -25 32 -20 70 2
24 10 51 17 59 18 22 67 19 82 -5 11 -18 58 -29 58 -14 0 12 -24 50 -39 61
-26 20 -95 16 -124 -8z"/>
<path d="M9140 1480 c0 -113 1 -120 20 -120 19 0 20 7 20 120 0 113 -1 120
-20 120 -19 0 -20 -7 -20 -120z"/>
<path d="M9760 1560 c0 -37 -2 -40 -19 -30 -32 17 -58 12 -80 -16 -32 -41 -25
-122 13 -146 6 -4 37 -7 69 -7 l57 1 0 119 c0 112 -1 119 -20 119 -17 0 -20
-7 -20 -40z m-11 -74 c17 -20 10 -77 -11 -90 -21 -13 -58 17 -58 46 0 49 43
76 69 44z"/>
<path d="M10119 1572 c-62 -56 -45 -178 29 -209 31 -13 40 -13 74 0 21 9 38
11 38 6 0 -5 7 -9 15 -9 12 0 15 14 15 65 l0 65 -45 0 c-38 0 -45 -3 -45 -20
0 -15 7 -20 25 -20 15 0 25 -6 25 -14 0 -18 -38 -46 -61 -46 -28 0 -59 48 -59
92 0 71 68 110 106 62 15 -18 54 -18 54 0 0 27 -50 56 -96 56 -34 0 -51 -6
-75 -28z"/>
<path d="M11430 1480 c0 -113 1 -120 20 -120 19 0 20 7 20 120 0 113 -1 120
-20 120 -19 0 -20 -7 -20 -120z"/>
<path d="M10660 1492 c0 -108 13 -132 70 -132 46 0 70 26 70 77 0 26 -4 33
-20 33 -15 0 -20 -7 -20 -29 0 -16 -7 -35 -16 -42 -14 -11 -18 -10 -30 6 -8
10 -14 36 -14 57 l0 38 50 0 c43 0 50 3 50 20 0 17 -7 20 -50 20 -43 0 -50 3
-50 20 0 13 -7 20 -20 20 -18 0 -20 -7 -20 -88z"/>
<path d="M6087 1523 c-11 -11 -17 -13 -17 -5 0 7 -9 12 -20 12 -18 0 -20 -7
-20 -85 0 -78 2 -85 20 -85 17 0 20 7 20 53 0 60 17 91 46 85 16 -3 19 -13 22
-71 3 -59 5 -67 22 -67 18 0 20 7 20 80 0 68 -3 81 -19 90 -29 15 -54 12 -74
-7z"/>
<path d="M6470 1522 c-33 -27 -39 -99 -10 -134 28 -37 89 -39 122 -6 21 21 22
23 4 26 -10 2 -29 -2 -42 -9 -19 -10 -26 -10 -39 1 -31 26 -18 40 40 40 52 0
55 1 55 25 0 60 -82 96 -130 57z m79 -35 c14 -18 4 -27 -31 -27 -26 0 -37 17
-21 33 11 12 40 8 52 -6z"/>
<path d="M6682 1531 c-7 -4 -24 -6 -38 -3 -24 4 -24 4 -24 -82 0 -79 2 -86 20
-86 17 0 20 7 20 46 0 55 14 84 40 84 15 0 20 7 20 25 0 25 -14 31 -38 16z"/>
<path d="M6752 1524 c-16 -11 -22 -24 -20 -42 2 -22 12 -30 56 -46 29 -10 51
-24 49 -30 -5 -15 -47 -20 -60 -7 -13 13 -47 15 -47 2 0 -23 34 -41 75 -41 51
0 77 21 73 59 -2 21 -12 29 -55 45 -29 10 -53 22 -53 26 0 17 34 20 56 5 31
-20 44 -19 44 5 0 38 -76 54 -118 24z"/>
<path d="M7168 1528 c-8 -7 -18 -21 -21 -30 -5 -14 -1 -18 18 -18 14 0 25 4
25 9 0 15 32 22 46 10 20 -16 10 -25 -41 -38 -36 -9 -46 -17 -51 -38 -12 -45
6 -58 80 -59 l66 -2 0 69 c0 56 -4 73 -20 89 -23 23 -78 27 -102 8z m82 -94
c0 -18 -23 -44 -40 -44 -25 0 -35 17 -20 35 12 14 60 21 60 9z"/>
<path d="M7786 1519 c-22 -17 -26 -28 -26 -70 0 -36 5 -54 20 -69 27 -27 90
-27 115 0 25 27 12 36 -31 21 -37 -14 -64 -3 -64 25 0 10 16 14 61 14 52 0 60
2 55 16 -3 9 -6 22 -6 29 0 23 -42 55 -71 55 -14 0 -38 -9 -53 -21z m82 -41
c3 -14 -3 -18 -26 -18 -35 0 -45 9 -30 27 15 19 52 12 56 -9z"/>
<path d="M8242 1524 c-12 -8 -22 -22 -22 -30 0 -19 29 -18 50 1 19 17 50 10
50 -11 0 -8 -16 -16 -41 -20 -51 -9 -77 -42 -61 -79 11 -23 17 -25 77 -24 l65
1 0 73 c0 57 -4 75 -18 88 -23 21 -71 22 -100 1z m78 -97 c0 -19 -21 -37 -42
-37 -21 0 -25 35 -5 43 23 10 47 7 47 -6z"/>
<path d="M8446 1524 c-9 -8 -16 -11 -16 -5 0 6 -9 11 -20 11 -18 0 -20 -7 -20
-85 0 -78 2 -85 20 -85 16 0 19 8 22 61 3 65 19 88 52 76 12 -5 16 -20 16 -72
0 -58 2 -65 20 -65 18 0 20 7 20 74 0 82 -13 106 -55 106 -13 0 -31 -7 -39
-16z"/>
<path d="M8888 1528 c-8 -7 -18 -21 -21 -30 -5 -14 -1 -18 18 -18 14 0 25 4
25 9 0 15 32 22 46 10 20 -16 10 -25 -41 -38 -36 -9 -46 -17 -51 -38 -12 -45
6 -58 80 -59 l66 -2 0 69 c0 56 -4 73 -20 89 -23 23 -78 27 -102 8z m82 -94
c0 -18 -23 -44 -40 -44 -25 0 -35 17 -20 35 12 14 60 21 60 9z"/>
<path d="M9092 1531 c-7 -4 -24 -6 -38 -3 -24 4 -24 4 -24 -82 0 -79 2 -86 20
-86 17 0 20 7 20 46 0 55 14 84 40 84 15 0 20 7 20 25 0 25 -14 31 -38 16z"/>
<path d="M9243 1528 c-48 -23 -55 -121 -10 -153 12 -8 38 -15 59 -15 51 0 78
30 78 87 0 74 -61 113 -127 81z m75 -40 c17 -17 15 -64 -4 -82 -20 -21 -30
-20 -54 4 -23 23 -24 29 -10 64 10 28 47 35 68 14z"/>
<path d="M9410 1522 c-18 -14 -21 -25 -16 -45 5 -21 16 -29 54 -40 27 -8 47
-20 47 -28 0 -17 -43 -25 -58 -10 -13 13 -47 15 -47 3 0 -22 39 -42 82 -42 52
0 71 16 66 57 -2 22 -11 31 -48 44 -24 9 -46 21 -48 28 -6 19 28 24 47 7 20
-18 51 -22 51 -6 0 6 -9 19 -20 30 -25 25 -80 26 -110 2z"/>
<path d="M9850 1522 c-33 -27 -39 -99 -10 -134 28 -37 89 -39 122 -6 21 21 22
23 4 26 -10 2 -29 -2 -42 -9 -19 -10 -26 -10 -39 1 -31 26 -18 40 40 40 52 0
55 1 55 25 0 60 -82 96 -130 57z m79 -35 c14 -18 4 -27 -31 -27 -26 0 -37 17
-21 33 11 12 40 8 52 -6z"/>
<path d="M10510 1520 c-11 -11 -20 -24 -20 -30 0 -15 31 -12 50 5 18 17 50 11
50 -9 0 -7 -21 -19 -47 -27 -47 -14 -48 -15 -48 -54 l0 -40 74 -1 73 -2 -4 75
c-3 60 -7 78 -23 89 -28 21 -82 17 -105 -6z m80 -94 c0 -20 -27 -39 -45 -32
-18 7 -20 32 -2 39 24 10 47 7 47 -7z"/>
<path d="M10840 1522 c-33 -27 -39 -99 -10 -134 28 -37 89 -39 122 -6 21 21
22 23 4 26 -10 2 -29 -2 -42 -9 -19 -10 -26 -10 -39 1 -31 26 -18 40 40 40 52
0 55 1 55 25 0 60 -82 96 -130 57z m79 -35 c14 -18 4 -27 -31 -27 -26 0 -37
17 -21 33 11 12 40 8 52 -6z"/>
<path d="M11052 1531 c-7 -4 -24 -6 -38 -3 -24 4 -24 4 -24 -82 0 -79 2 -86
20 -86 18 0 20 7 20 59 0 61 16 89 45 77 11 -4 15 -22 15 -71 0 -58 2 -65 20
-65 18 0 20 7 20 59 0 61 16 89 45 77 11 -4 15 -22 15 -71 0 -58 2 -65 20 -65
18 0 20 7 20 74 0 54 -4 79 -16 90 -18 19 -55 21 -72 4 -9 -9 -15 -9 -24 0
-14 14 -47 16 -66 3z"/>
<path d="M11282 1524 c-12 -8 -22 -22 -22 -30 0 -18 27 -18 46 1 18 18 24 18
44 5 13 -9 12 -12 -4 -25 -11 -8 -30 -15 -42 -15 -29 0 -54 -25 -54 -54 0 -35
20 -45 88 -44 l62 1 0 73 c0 64 -3 75 -22 88 -12 9 -34 16 -48 16 -14 0 -36
-7 -48 -16z m78 -97 c0 -31 -51 -50 -66 -25 -8 13 22 38 48 38 10 0 18 -6 18
-13z"/>
<path d="M11512 1524 c-12 -8 -22 -22 -22 -30 0 -19 29 -18 50 1 19 17 50 10
50 -11 0 -8 -16 -16 -41 -20 -51 -9 -77 -42 -61 -79 11 -23 17 -25 77 -24 l65
1 0 73 c0 57 -4 75 -18 88 -23 21 -71 22 -100 1z m78 -97 c0 -19 -21 -37 -42
-37 -21 0 -25 35 -5 43 23 10 47 7 47 -6z"/>
<path d="M6210 1445 c0 -78 2 -85 20 -85 18 0 20 7 20 85 0 78 -2 85 -20 85
-18 0 -20 -7 -20 -85z"/>
<path d="M6270 1523 c0 -4 12 -43 26 -85 22 -67 29 -78 49 -78 25 0 25 1 60
103 l24 67 -24 0 c-16 0 -25 -7 -29 -25 -3 -13 -11 -37 -17 -52 l-11 -28 -17
50 c-13 37 -23 51 -39 53 -12 2 -22 0 -22 -5z"/>
<path d="M6900 1445 c0 -78 2 -85 20 -85 18 0 20 7 20 85 0 78 -2 85 -20 85
-18 0 -20 -7 -20 -85z"/>
<path d="M10320 1464 c0 -83 11 -104 53 -104 18 0 38 5 45 12 9 9 12 9 12 0 0
-7 9 -12 20 -12 18 0 20 7 20 85 0 78 -2 85 -20 85 -18 0 -20 -7 -20 -54 0
-36 -5 -60 -16 -70 -33 -34 -54 -8 -54 66 0 51 -2 58 -20 58 -18 0 -20 -7 -20
-66z"/>
</g>
</svg>
